<svg xmlns="http://www.w3.org/2000/svg" viewBox="0 0 600 500" fill="none" stroke-linecap="round">
<!-- A Morpho butterfly in line, for the Book page: outlines, veins and the fine ridges of the
     wing scales, whose layered structure, not pigment, makes the blue. -->
<defs>
  <linearGradient id="ir" x1="40" y1="40" x2="560" y2="480" gradientUnits="userSpaceOnUse">
    <stop offset="0" stop-color="#3fd0ff"/><stop offset=".35" stop-color="#1d6bff"/>
    <stop offset=".65" stop-color="#3b3fe0"/><stop offset="1" stop-color="#7a4dff"/>
  </linearGradient>
  <g id="rh"><path d="M300 250 L630 250"/><path d="M300 250 L630 254"/><path d="M300 250 L630 257"/><path d="M300 250 L630 261"/><path d="M300 250 L630 265"/><path d="M300 250 L629 269"/><path d="M300 250 L629 272"/><path d="M300 250 L629 276"/><path d="M300 250 L629 280"/><path d="M300 250 L628 283"/><path d="M300 250 L628 287"/><path d="M300 250 L627 291"/><path d="M300 250 L627 294"/><path d="M300 250 L626 298"/><path d="M300 250 L626 302"/><path d="M300 250 L625 305"/><path d="M300 250 L625 309"/><path d="M300 250 L624 313"/><path d="M300 250 L623 316"/><path d="M300 250 L623 320"/><path d="M300 250 L622 323"/><path d="M300 250 L621 327"/><path d="M300 250 L620 331"/><path d="M300 250 L619 334"/><path d="M300 250 L618 338"/><path d="M300 250 L617 341"/><path d="M300 250 L616 345"/><path d="M300 250 L615 348"/><path d="M300 250 L614 352"/><path d="M300 250 L613 355"/><path d="M300 250 L611 359"/><path d="M300 250 L610 362"/><path d="M300 250 L609 366"/><path d="M300 250 L608 369"/><path d="M300 250 L606 373"/><path d="M300 250 L605 376"/><path d="M300 250 L603 380"/><path d="M300 250 L602 383"/><path d="M300 250 L600 386"/><path d="M300 250 L599 390"/><path d="M300 250 L597 393"/><path d="M300 250 L596 397"/><path d="M300 250 L594 400"/><path d="M300 250 L592 403"/><path d="M300 250 L591 406"/><path d="M300 250 L589 410"/><path d="M300 250 L587 413"/><path d="M300 250 L585 416"/><path d="M300 250 L583 419"/><path d="M300 250 L581 422"/><path d="M300 250 L579 426"/><path d="M300 250 L577 429"/><path d="M300 250 L575 432"/><path d="M300 250 L573 435"/><path d="M300 250 L571 438"/><path d="M300 250 L569 441"/><path d="M300 250 L567 444"/><path d="M300 250 L565 447"/><path d="M300 250 L563 450"/><path d="M300 250 L560 453"/><path d="M300 250 L558 456"/><path d="M300 250 L556 459"/><path d="M300 250 L553 461"/><path d="M300 250 L551 464"/><path d="M300 250 L549 467"/><path d="M300 250 L546 470"/><path d="M300 250 L544 473"/><path d="M300 250 L541 475"/><path d="M300 250 L539 478"/><path d="M300 250 L536 481"/><path d="M300 250 L533 483"/><path d="M300 250 L531 486"/><path d="M300 250 L528 489"/><path d="M300 250 L525 491"/><path d="M300 250 L523 494"/><path d="M300 250 L520 496"/><path d="M300 250 L517 499"/><path d="M300 250 L514 501"/><path d="M300 250 L511 503"/><path d="M300 250 L509 506"/><path d="M300 250 L506 508"/><path d="M300 250 L503 510"/><path d="M300 250 L500 513"/><path d="M300 250 L497 515"/><path d="M300 250 L494 517"/><path d="M300 250 L491 519"/><path d="M300 250 L488 521"/><path d="M300 250 L485 523"/><path d="M300 250 L482 525"/><path d="M300 250 L479 527"/><path d="M300 250 L476 529"/><path d="M300 250 L472 531"/><path d="M300 250 L469 533"/><path d="M300 250 L466 535"/><path d="M300 250 L463 537"/><path d="M300 250 L460 539"/><path d="M300 250 L456 541"/><path d="M300 250 L453 542"/><path d="M300 250 L450 544"/><path d="M300 250 L447 546"/><path d="M300 250 L443 547"/><path d="M300 250 L440 549"/><path d="M300 250 L436 550"/><path d="M300 250 L433 552"/><path d="M300 250 L430 553"/><path d="M300 250 L426 555"/><path d="M300 250 L423 556"/><path d="M300 250 L419 558"/><path d="M300 250 L416 559"/><path d="M300 250 L412 560"/><path d="M300 250 L409 561"/><path d="M300 250 L405 563"/><path d="M300 250 L402 564"/><path d="M300 250 L398 565"/><path d="M300 250 L395 566"/><path d="M300 250 L391 567"/><path d="M300 250 L388 568"/><path d="M300 250 L384 569"/><path d="M300 250 L381 570"/><path d="M300 250 L377 571"/><path d="M300 250 L373 572"/><path d="M300 250 L370 573"/><path d="M300 250 L366 573"/><path d="M300 250 L363 574"/><path d="M300 250 L359 575"/><path d="M300 250 L355 575"/><path d="M300 250 L352 576"/><path d="M300 250 L348 576"/><path d="M300 250 L344 577"/><path d="M300 250 L341 577"/><path d="M300 250 L337 578"/><path d="M300 250 L333 578"/><path d="M300 250 L330 579"/><path d="M300 250 L326 579"/><path d="M300 250 L322 579"/><path d="M300 250 L319 579"/><path d="M300 250 L315 580"/><path d="M300 250 L311 580"/><path d="M300 250 L307 580"/><path d="M300 250 L304 580"/><path d="M300 250 L300 580"/><path d="M300 250 L296 580"/><path d="M300 250 L293 580"/><path d="M300 250 L289 580"/><path d="M300 250 L285 580"/><path d="M300 250 L281 579"/><path d="M300 250 L278 579"/><path d="M300 250 L274 579"/><path d="M300 250 L270 579"/><path d="M300 250 L267 578"/><path d="M300 250 L263 578"/><path d="M300 250 L259 577"/><path d="M300 250 L256 577"/><path d="M300 250 L252 576"/><path d="M300 250 L248 576"/><path d="M300 250 L245 575"/><path d="M300 250 L241 575"/><path d="M300 250 L237 574"/><path d="M300 250 L234 573"/><path d="M300 250 L230 573"/><path d="M300 250 L227 572"/><path d="M300 250 L223 571"/><path d="M300 250 L219 570"/><path d="M300 250 L216 569"/><path d="M300 250 L212 568"/><path d="M300 250 L209 567"/><path d="M300 250 L205 566"/><path d="M300 250 L202 565"/><path d="M300 250 L198 564"/><path d="M300 250 L195 563"/><path d="M300 250 L191 561"/><path d="M300 250 L188 560"/><path d="M300 250 L184 559"/><path d="M300 250 L181 558"/><path d="M300 250 L177 556"/><path d="M300 250 L174 555"/><path d="M300 250 L170 553"/><path d="M300 250 L167 552"/><path d="M300 250 L164 550"/><path d="M300 250 L160 549"/><path d="M300 250 L157 547"/><path d="M300 250 L153 546"/><path d="M300 250 L150 544"/><path d="M300 250 L147 542"/><path d="M300 250 L144 541"/><path d="M300 250 L140 539"/><path d="M300 250 L137 537"/><path d="M300 250 L134 535"/><path d="M300 250 L131 533"/><path d="M300 250 L128 531"/><path d="M300 250 L124 529"/><path d="M300 250 L121 527"/><path d="M300 250 L118 525"/><path d="M300 250 L115 523"/><path d="M300 250 L112 521"/><path d="M300 250 L109 519"/><path d="M300 250 L106 517"/><path d="M300 250 L103 515"/><path d="M300 250 L100 513"/><path d="M300 250 L97 510"/><path d="M300 250 L94 508"/><path d="M300 250 L91 506"/><path d="M300 250 L89 503"/><path d="M300 250 L86 501"/><path d="M300 250 L83 499"/><path d="M300 250 L80 496"/><path d="M300 250 L77 494"/><path d="M300 250 L75 491"/><path d="M300 250 L72 489"/><path d="M300 250 L69 486"/><path d="M300 250 L67 483"/><path d="M300 250 L64 481"/><path d="M300 250 L61 478"/><path d="M300 250 L59 475"/><path d="M300 250 L56 473"/><path d="M300 250 L54 470"/><path d="M300 250 L51 467"/><path d="M300 250 L49 464"/><path d="M300 250 L47 461"/><path d="M300 250 L44 459"/><path d="M300 250 L42 456"/><path d="M300 250 L40 453"/><path d="M300 250 L37 450"/><path d="M300 250 L35 447"/><path d="M300 250 L33 444"/><path d="M300 250 L31 441"/><path d="M300 250 L29 438"/><path d="M300 250 L27 435"/><path d="M300 250 L25 432"/><path d="M300 250 L23 429"/><path d="M300 250 L21 426"/><path d="M300 250 L19 422"/><path d="M300 250 L17 419"/><path d="M300 250 L15 416"/><path d="M300 250 L13 413"/><path d="M300 250 L11 410"/><path d="M300 250 L9 406"/><path d="M300 250 L8 403"/><path d="M300 250 L6 400"/><path d="M300 250 L4 397"/><path d="M300 250 L3 393"/><path d="M300 250 L1 390"/><path d="M300 250 L-0 386"/><path d="M300 250 L-2 383"/><path d="M300 250 L-3 380"/><path d="M300 250 L-5 376"/><path d="M300 250 L-6 373"/><path d="M300 250 L-8 369"/><path d="M300 250 L-9 366"/><path d="M300 250 L-10 362"/><path d="M300 250 L-11 359"/><path d="M300 250 L-13 355"/><path d="M300 250 L-14 352"/><path d="M300 250 L-15 348"/><path d="M300 250 L-16 345"/><path d="M300 250 L-17 341"/><path d="M300 250 L-18 338"/><path d="M300 250 L-19 334"/><path d="M300 250 L-20 331"/><path d="M300 250 L-21 327"/><path d="M300 250 L-22 323"/><path d="M300 250 L-23 320"/><path d="M300 250 L-23 316"/><path d="M300 250 L-24 313"/><path d="M300 250 L-25 309"/><path d="M300 250 L-25 305"/><path d="M300 250 L-26 302"/><path d="M300 250 L-26 298"/><path d="M300 250 L-27 294"/><path d="M300 250 L-27 291"/><path d="M300 250 L-28 287"/><path d="M300 250 L-28 283"/><path d="M300 250 L-29 280"/><path d="M300 250 L-29 276"/><path d="M300 250 L-29 272"/><path d="M300 250 L-29 269"/><path d="M300 250 L-30 265"/><path d="M300 250 L-30 261"/><path d="M300 250 L-30 257"/><path d="M300 250 L-30 254"/><path d="M300 250 L-30 250"/><path d="M300 250 L-30 246"/><path d="M300 250 L-30 243"/><path d="M300 250 L-30 239"/><path d="M300 250 L-30 235"/><path d="M300 250 L-29 231"/><path d="M300 250 L-29 228"/><path d="M300 250 L-29 224"/><path d="M300 250 L-29 220"/><path d="M300 250 L-28 217"/><path d="M300 250 L-28 213"/><path d="M300 250 L-27 209"/><path d="M300 250 L-27 206"/><path d="M300 250 L-26 202"/><path d="M300 250 L-26 198"/><path d="M300 250 L-25 195"/><path d="M300 250 L-25 191"/><path d="M300 250 L-24 187"/><path d="M300 250 L-23 184"/><path d="M300 250 L-23 180"/><path d="M300 250 L-22 177"/><path d="M300 250 L-21 173"/><path d="M300 250 L-20 169"/><path d="M300 250 L-19 166"/><path d="M300 250 L-18 162"/><path d="M300 250 L-17 159"/><path d="M300 250 L-16 155"/><path d="M300 250 L-15 152"/><path d="M300 250 L-14 148"/><path d="M300 250 L-13 145"/><path d="M300 250 L-11 141"/><path d="M300 250 L-10 138"/><path d="M300 250 L-9 134"/><path d="M300 250 L-8 131"/><path d="M300 250 L-6 127"/><path d="M300 250 L-5 124"/><path d="M300 250 L-3 120"/><path d="M300 250 L-2 117"/><path d="M300 250 L-0 114"/><path d="M300 250 L1 110"/><path d="M300 250 L3 107"/><path d="M300 250 L4 103"/><path d="M300 250 L6 100"/><path d="M300 250 L8 97"/><path d="M300 250 L9 94"/><path d="M300 250 L11 90"/><path d="M300 250 L13 87"/><path d="M300 250 L15 84"/><path d="M300 250 L17 81"/><path d="M300 250 L19 78"/><path d="M300 250 L21 74"/><path d="M300 250 L23 71"/><path d="M300 250 L25 68"/><path d="M300 250 L27 65"/><path d="M300 250 L29 62"/><path d="M300 250 L31 59"/><path d="M300 250 L33 56"/><path d="M300 250 L35 53"/><path d="M300 250 L37 50"/><path d="M300 250 L40 47"/><path d="M300 250 L42 44"/><path d="M300 250 L44 41"/><path d="M300 250 L47 39"/><path d="M300 250 L49 36"/><path d="M300 250 L51 33"/><path d="M300 250 L54 30"/><path d="M300 250 L56 27"/><path d="M300 250 L59 25"/><path d="M300 250 L61 22"/><path d="M300 250 L64 19"/><path d="M300 250 L67 17"/><path d="M300 250 L69 14"/><path d="M300 250 L72 11"/><path d="M300 250 L75 9"/><path d="M300 250 L77 6"/><path d="M300 250 L80 4"/><path d="M300 250 L83 1"/><path d="M300 250 L86 -1"/><path d="M300 250 L89 -3"/><path d="M300 250 L91 -6"/><path d="M300 250 L94 -8"/><path d="M300 250 L97 -10"/><path d="M300 250 L100 -13"/><path d="M300 250 L103 -15"/><path d="M300 250 L106 -17"/><path d="M300 250 L109 -19"/><path d="M300 250 L112 -21"/><path d="M300 250 L115 -23"/><path d="M300 250 L118 -25"/><path d="M300 250 L121 -27"/><path d="M300 250 L124 -29"/><path d="M300 250 L128 -31"/><path d="M300 250 L131 -33"/><path d="M300 250 L134 -35"/><path d="M300 250 L137 -37"/><path d="M300 250 L140 -39"/><path d="M300 250 L144 -41"/><path d="M300 250 L147 -42"/><path d="M300 250 L150 -44"/><path d="M300 250 L153 -46"/><path d="M300 250 L157 -47"/><path d="M300 250 L160 -49"/><path d="M300 250 L164 -50"/><path d="M300 250 L167 -52"/><path d="M300 250 L170 -53"/><path d="M300 250 L174 -55"/><path d="M300 250 L177 -56"/><path d="M300 250 L181 -58"/><path d="M300 250 L184 -59"/><path d="M300 250 L188 -60"/><path d="M300 250 L191 -61"/><path d="M300 250 L195 -63"/><path d="M300 250 L198 -64"/><path d="M300 250 L202 -65"/><path d="M300 250 L205 -66"/><path d="M300 250 L209 -67"/><path d="M300 250 L212 -68"/><path d="M300 250 L216 -69"/><path d="M300 250 L219 -70"/><path d="M300 250 L223 -71"/><path d="M300 250 L227 -72"/><path d="M300 250 L230 -73"/><path d="M300 250 L234 -73"/><path d="M300 250 L237 -74"/><path d="M300 250 L241 -75"/><path d="M300 250 L245 -75"/><path d="M300 250 L248 -76"/><path d="M300 250 L252 -76"/><path d="M300 250 L256 -77"/><path d="M300 250 L259 -77"/><path d="M300 250 L263 -78"/><path d="M300 250 L267 -78"/><path d="M300 250 L270 -79"/><path d="M300 250 L274 -79"/><path d="M300 250 L278 -79"/><path d="M300 250 L282 -79"/><path d="M300 250 L285 -80"/><path d="M300 250 L289 -80"/><path d="M300 250 L293 -80"/><path d="M300 250 L296 -80"/><path d="M300 250 L300 -80"/><path d="M300 250 L304 -80"/><path d="M300 250 L307 -80"/><path d="M300 250 L311 -80"/><path d="M300 250 L315 -80"/><path d="M300 250 L319 -79"/><path d="M300 250 L322 -79"/><path d="M300 250 L326 -79"/><path d="M300 250 L330 -79"/><path d="M300 250 L333 -78"/><path d="M300 250 L337 -78"/><path d="M300 250 L341 -77"/><path d="M300 250 L344 -77"/><path d="M300 250 L348 -76"/><path d="M300 250 L352 -76"/><path d="M300 250 L355 -75"/><path d="M300 250 L359 -75"/><path d="M300 250 L363 -74"/><path d="M300 250 L366 -73"/><path d="M300 250 L370 -73"/><path d="M300 250 L373 -72"/><path d="M300 250 L377 -71"/><path d="M300 250 L381 -70"/><path d="M300 250 L384 -69"/><path d="M300 250 L388 -68"/><path d="M300 250 L391 -67"/><path d="M300 250 L395 -66"/><path d="M300 250 L398 -65"/><path d="M300 250 L402 -64"/><path d="M300 250 L405 -63"/><path d="M300 250 L409 -61"/><path d="M300 250 L412 -60"/><path d="M300 250 L416 -59"/><path d="M300 250 L419 -58"/><path d="M300 250 L423 -56"/><path d="M300 250 L426 -55"/><path d="M300 250 L430 -53"/><path d="M300 250 L433 -52"/><path d="M300 250 L436 -50"/><path d="M300 250 L440 -49"/><path d="M300 250 L443 -47"/><path d="M300 250 L447 -46"/><path d="M300 250 L450 -44"/><path d="M300 250 L453 -42"/><path d="M300 250 L456 -41"/><path d="M300 250 L460 -39"/><path d="M300 250 L463 -37"/><path d="M300 250 L466 -35"/><path d="M300 250 L469 -33"/><path d="M300 250 L472 -31"/><path d="M300 250 L476 -29"/><path d="M300 250 L479 -27"/><path d="M300 250 L482 -25"/><path d="M300 250 L485 -23"/><path d="M300 250 L488 -21"/><path d="M300 250 L491 -19"/><path d="M300 250 L494 -17"/><path d="M300 250 L497 -15"/><path d="M300 250 L500 -13"/><path d="M300 250 L503 -10"/><path d="M300 250 L506 -8"/><path d="M300 250 L509 -6"/><path d="M300 250 L511 -3"/><path d="M300 250 L514 -1"/><path d="M300 250 L517 1"/><path d="M300 250 L520 4"/><path d="M300 250 L523 6"/><path d="M300 250 L525 9"/><path d="M300 250 L528 11"/><path d="M300 250 L531 14"/><path d="M300 250 L533 17"/><path d="M300 250 L536 19"/><path d="M300 250 L539 22"/><path d="M300 250 L541 25"/><path d="M300 250 L544 27"/><path d="M300 250 L546 30"/><path d="M300 250 L549 33"/><path d="M300 250 L551 36"/><path d="M300 250 L553 39"/><path d="M300 250 L556 41"/><path d="M300 250 L558 44"/><path d="M300 250 L560 47"/><path d="M300 250 L563 50"/><path d="M300 250 L565 53"/><path d="M300 250 L567 56"/><path d="M300 250 L569 59"/><path d="M300 250 L571 62"/><path d="M300 250 L573 65"/><path d="M300 250 L575 68"/><path d="M300 250 L577 71"/><path d="M300 250 L579 74"/><path d="M300 250 L581 78"/><path d="M300 250 L583 81"/><path d="M300 250 L585 84"/><path d="M300 250 L587 87"/><path d="M300 250 L589 90"/><path d="M300 250 L591 94"/><path d="M300 250 L592 97"/><path d="M300 250 L594 100"/><path d="M300 250 L596 103"/><path d="M300 250 L597 107"/><path d="M300 250 L599 110"/><path d="M300 250 L600 114"/><path d="M300 250 L602 117"/><path d="M300 250 L603 120"/><path d="M300 250 L605 124"/><path d="M300 250 L606 127"/><path d="M300 250 L608 131"/><path d="M300 250 L609 134"/><path d="M300 250 L610 138"/><path d="M300 250 L611 141"/><path d="M300 250 L613 145"/><path d="M300 250 L614 148"/><path d="M300 250 L615 152"/><path d="M300 250 L616 155"/><path d="M300 250 L617 159"/><path d="M300 250 L618 162"/><path d="M300 250 L619 166"/><path d="M300 250 L620 169"/><path d="M300 250 L621 173"/><path d="M300 250 L622 177"/><path d="M300 250 L623 180"/><path d="M300 250 L623 184"/><path d="M300 250 L624 187"/><path d="M300 250 L625 191"/><path d="M300 250 L625 195"/><path d="M300 250 L626 198"/><path d="M300 250 L626 202"/><path d="M300 250 L627 206"/><path d="M300 250 L627 209"/><path d="M300 250 L628 213"/><path d="M300 250 L628 217"/><path d="M300 250 L629 220"/><path d="M300 250 L629 224"/><path d="M300 250 L629 228"/><path d="M300 250 L629 232"/><path d="M300 250 L630 235"/><path d="M300 250 L630 239"/><path d="M300 250 L630 243"/><path d="M300 250 L630 246"/><path d="M300 250 L630 250"/></g><g id="rf"><path d="M300 235 L630 235"/><path d="M300 235 L630 238"/><path d="M300 235 L630 242"/><path d="M300 235 L630 245"/><path d="M300 235 L630 248"/><path d="M300 235 L630 252"/><path d="M300 235 L629 255"/><path d="M300 235 L629 258"/><path d="M300 235 L629 262"/><path d="M300 235 L629 265"/><path d="M300 235 L628 268"/><path d="M300 235 L628 272"/><path d="M300 235 L628 275"/><path d="M300 235 L627 278"/><path d="M300 235 L627 282"/><path d="M300 235 L626 285"/><path d="M300 235 L626 288"/><path d="M300 235 L625 292"/><path d="M300 235 L625 295"/><path d="M300 235 L624 298"/><path d="M300 235 L623 301"/><path d="M300 235 L623 305"/><path d="M300 235 L622 308"/><path d="M300 235 L621 311"/><path d="M300 235 L620 314"/><path d="M300 235 L619 318"/><path d="M300 235 L619 321"/><path d="M300 235 L618 324"/><path d="M300 235 L617 327"/><path d="M300 235 L616 331"/><path d="M300 235 L615 334"/><path d="M300 235 L614 337"/><path d="M300 235 L613 340"/><path d="M300 235 L612 343"/><path d="M300 235 L611 346"/><path d="M300 235 L609 350"/><path d="M300 235 L608 353"/><path d="M300 235 L607 356"/><path d="M300 235 L606 359"/><path d="M300 235 L605 362"/><path d="M300 235 L603 365"/><path d="M300 235 L602 368"/><path d="M300 235 L601 371"/><path d="M300 235 L599 374"/><path d="M300 235 L598 377"/><path d="M300 235 L596 380"/><path d="M300 235 L595 383"/><path d="M300 235 L593 386"/><path d="M300 235 L592 389"/><path d="M300 235 L590 392"/><path d="M300 235 L589 395"/><path d="M300 235 L587 398"/><path d="M300 235 L585 401"/><path d="M300 235 L584 404"/><path d="M300 235 L582 407"/><path d="M300 235 L580 410"/><path d="M300 235 L578 412"/><path d="M300 235 L576 415"/><path d="M300 235 L575 418"/><path d="M300 235 L573 421"/><path d="M300 235 L571 424"/><path d="M300 235 L569 426"/><path d="M300 235 L567 429"/><path d="M300 235 L565 432"/><path d="M300 235 L563 434"/><path d="M300 235 L561 437"/><path d="M300 235 L559 440"/><path d="M300 235 L557 442"/><path d="M300 235 L555 445"/><path d="M300 235 L553 447"/><path d="M300 235 L550 450"/><path d="M300 235 L548 452"/><path d="M300 235 L546 455"/><path d="M300 235 L544 457"/><path d="M300 235 L541 460"/><path d="M300 235 L539 462"/><path d="M300 235 L537 465"/><path d="M300 235 L535 467"/><path d="M300 235 L532 470"/><path d="M300 235 L530 472"/><path d="M300 235 L527 474"/><path d="M300 235 L525 476"/><path d="M300 235 L522 479"/><path d="M300 235 L520 481"/><path d="M300 235 L517 483"/><path d="M300 235 L515 485"/><path d="M300 235 L512 488"/><path d="M300 235 L510 490"/><path d="M300 235 L507 492"/><path d="M300 235 L505 494"/><path d="M300 235 L502 496"/><path d="M300 235 L499 498"/><path d="M300 235 L497 500"/><path d="M300 235 L494 502"/><path d="M300 235 L491 504"/><path d="M300 235 L489 506"/><path d="M300 235 L486 508"/><path d="M300 235 L483 510"/><path d="M300 235 L480 511"/><path d="M300 235 L477 513"/><path d="M300 235 L475 515"/><path d="M300 235 L472 517"/><path d="M300 235 L469 519"/><path d="M300 235 L466 520"/><path d="M300 235 L463 522"/><path d="M300 235 L460 524"/><path d="M300 235 L457 525"/><path d="M300 235 L454 527"/><path d="M300 235 L451 528"/><path d="M300 235 L448 530"/><path d="M300 235 L445 531"/><path d="M300 235 L442 533"/><path d="M300 235 L439 534"/><path d="M300 235 L436 536"/><path d="M300 235 L433 537"/><path d="M300 235 L430 538"/><path d="M300 235 L427 540"/><path d="M300 235 L424 541"/><path d="M300 235 L421 542"/><path d="M300 235 L418 543"/><path d="M300 235 L415 544"/><path d="M300 235 L411 546"/><path d="M300 235 L408 547"/><path d="M300 235 L405 548"/><path d="M300 235 L402 549"/><path d="M300 235 L399 550"/><path d="M300 235 L396 551"/><path d="M300 235 L392 552"/><path d="M300 235 L389 553"/><path d="M300 235 L386 554"/><path d="M300 235 L383 554"/><path d="M300 235 L379 555"/><path d="M300 235 L376 556"/><path d="M300 235 L373 557"/><path d="M300 235 L370 558"/><path d="M300 235 L366 558"/><path d="M300 235 L363 559"/><path d="M300 235 L360 560"/><path d="M300 235 L357 560"/><path d="M300 235 L353 561"/><path d="M300 235 L350 561"/><path d="M300 235 L347 562"/><path d="M300 235 L343 562"/><path d="M300 235 L340 563"/><path d="M300 235 L337 563"/><path d="M300 235 L333 563"/><path d="M300 235 L330 564"/><path d="M300 235 L327 564"/><path d="M300 235 L323 564"/><path d="M300 235 L320 564"/><path d="M300 235 L317 565"/><path d="M300 235 L313 565"/><path d="M300 235 L310 565"/><path d="M300 235 L307 565"/><path d="M300 235 L303 565"/><path d="M300 235 L300 565"/><path d="M300 235 L297 565"/><path d="M300 235 L293 565"/><path d="M300 235 L290 565"/><path d="M300 235 L287 565"/><path d="M300 235 L283 565"/><path d="M300 235 L280 564"/><path d="M300 235 L277 564"/><path d="M300 235 L273 564"/><path d="M300 235 L270 564"/><path d="M300 235 L267 563"/><path d="M300 235 L263 563"/><path d="M300 235 L260 563"/><path d="M300 235 L257 562"/><path d="M300 235 L253 562"/><path d="M300 235 L250 561"/><path d="M300 235 L247 561"/><path d="M300 235 L243 560"/><path d="M300 235 L240 560"/><path d="M300 235 L237 559"/><path d="M300 235 L234 558"/><path d="M300 235 L230 558"/><path d="M300 235 L227 557"/><path d="M300 235 L224 556"/><path d="M300 235 L221 555"/><path d="M300 235 L217 554"/><path d="M300 235 L214 554"/><path d="M300 235 L211 553"/><path d="M300 235 L208 552"/><path d="M300 235 L204 551"/><path d="M300 235 L201 550"/><path d="M300 235 L198 549"/><path d="M300 235 L195 548"/><path d="M300 235 L192 547"/><path d="M300 235 L189 546"/><path d="M300 235 L185 544"/><path d="M300 235 L182 543"/><path d="M300 235 L179 542"/><path d="M300 235 L176 541"/><path d="M300 235 L173 540"/><path d="M300 235 L170 538"/><path d="M300 235 L167 537"/><path d="M300 235 L164 536"/><path d="M300 235 L161 534"/><path d="M300 235 L158 533"/><path d="M300 235 L155 531"/><path d="M300 235 L152 530"/><path d="M300 235 L149 528"/><path d="M300 235 L146 527"/><path d="M300 235 L143 525"/><path d="M300 235 L140 524"/><path d="M300 235 L137 522"/><path d="M300 235 L134 520"/><path d="M300 235 L131 519"/><path d="M300 235 L128 517"/><path d="M300 235 L125 515"/><path d="M300 235 L123 513"/><path d="M300 235 L120 511"/><path d="M300 235 L117 510"/><path d="M300 235 L114 508"/><path d="M300 235 L111 506"/><path d="M300 235 L109 504"/><path d="M300 235 L106 502"/><path d="M300 235 L103 500"/><path d="M300 235 L101 498"/><path d="M300 235 L98 496"/><path d="M300 235 L95 494"/><path d="M300 235 L93 492"/><path d="M300 235 L90 490"/><path d="M300 235 L88 488"/><path d="M300 235 L85 485"/><path d="M300 235 L83 483"/><path d="M300 235 L80 481"/><path d="M300 235 L78 479"/><path d="M300 235 L75 476"/><path d="M300 235 L73 474"/><path d="M300 235 L70 472"/><path d="M300 235 L68 470"/><path d="M300 235 L65 467"/><path d="M300 235 L63 465"/><path d="M300 235 L61 462"/><path d="M300 235 L59 460"/><path d="M300 235 L56 457"/><path d="M300 235 L54 455"/><path d="M300 235 L52 452"/><path d="M300 235 L50 450"/><path d="M300 235 L47 447"/><path d="M300 235 L45 445"/><path d="M300 235 L43 442"/><path d="M300 235 L41 440"/><path d="M300 235 L39 437"/><path d="M300 235 L37 434"/><path d="M300 235 L35 432"/><path d="M300 235 L33 429"/><path d="M300 235 L31 426"/><path d="M300 235 L29 424"/><path d="M300 235 L27 421"/><path d="M300 235 L25 418"/><path d="M300 235 L24 415"/><path d="M300 235 L22 412"/><path d="M300 235 L20 410"/><path d="M300 235 L18 407"/><path d="M300 235 L16 404"/><path d="M300 235 L15 401"/><path d="M300 235 L13 398"/><path d="M300 235 L11 395"/><path d="M300 235 L10 392"/><path d="M300 235 L8 389"/><path d="M300 235 L7 386"/><path d="M300 235 L5 383"/><path d="M300 235 L4 380"/><path d="M300 235 L2 377"/><path d="M300 235 L1 374"/><path d="M300 235 L-1 371"/><path d="M300 235 L-2 368"/><path d="M300 235 L-3 365"/><path d="M300 235 L-5 362"/><path d="M300 235 L-6 359"/><path d="M300 235 L-7 356"/><path d="M300 235 L-8 353"/><path d="M300 235 L-9 350"/><path d="M300 235 L-11 346"/><path d="M300 235 L-12 343"/><path d="M300 235 L-13 340"/><path d="M300 235 L-14 337"/><path d="M300 235 L-15 334"/><path d="M300 235 L-16 331"/><path d="M300 235 L-17 327"/><path d="M300 235 L-18 324"/><path d="M300 235 L-19 321"/><path d="M300 235 L-19 318"/><path d="M300 235 L-20 314"/><path d="M300 235 L-21 311"/><path d="M300 235 L-22 308"/><path d="M300 235 L-23 305"/><path d="M300 235 L-23 301"/><path d="M300 235 L-24 298"/><path d="M300 235 L-25 295"/><path d="M300 235 L-25 292"/><path d="M300 235 L-26 288"/><path d="M300 235 L-26 285"/><path d="M300 235 L-27 282"/><path d="M300 235 L-27 278"/><path d="M300 235 L-28 275"/><path d="M300 235 L-28 272"/><path d="M300 235 L-28 268"/><path d="M300 235 L-29 265"/><path d="M300 235 L-29 262"/><path d="M300 235 L-29 258"/><path d="M300 235 L-29 255"/><path d="M300 235 L-30 252"/><path d="M300 235 L-30 248"/><path d="M300 235 L-30 245"/><path d="M300 235 L-30 242"/><path d="M300 235 L-30 238"/><path d="M300 235 L-30 235"/><path d="M300 235 L-30 232"/><path d="M300 235 L-30 228"/><path d="M300 235 L-30 225"/><path d="M300 235 L-30 222"/><path d="M300 235 L-30 218"/><path d="M300 235 L-29 215"/><path d="M300 235 L-29 212"/><path d="M300 235 L-29 208"/><path d="M300 235 L-29 205"/><path d="M300 235 L-28 202"/><path d="M300 235 L-28 198"/><path d="M300 235 L-28 195"/><path d="M300 235 L-27 192"/><path d="M300 235 L-27 188"/><path d="M300 235 L-26 185"/><path d="M300 235 L-26 182"/><path d="M300 235 L-25 178"/><path d="M300 235 L-25 175"/><path d="M300 235 L-24 172"/><path d="M300 235 L-23 169"/><path d="M300 235 L-23 165"/><path d="M300 235 L-22 162"/><path d="M300 235 L-21 159"/><path d="M300 235 L-20 156"/><path d="M300 235 L-19 152"/><path d="M300 235 L-19 149"/><path d="M300 235 L-18 146"/><path d="M300 235 L-17 143"/><path d="M300 235 L-16 139"/><path d="M300 235 L-15 136"/><path d="M300 235 L-14 133"/><path d="M300 235 L-13 130"/><path d="M300 235 L-12 127"/><path d="M300 235 L-11 124"/><path d="M300 235 L-9 120"/><path d="M300 235 L-8 117"/><path d="M300 235 L-7 114"/><path d="M300 235 L-6 111"/><path d="M300 235 L-5 108"/><path d="M300 235 L-3 105"/><path d="M300 235 L-2 102"/><path d="M300 235 L-1 99"/><path d="M300 235 L1 96"/><path d="M300 235 L2 93"/><path d="M300 235 L4 90"/><path d="M300 235 L5 87"/><path d="M300 235 L7 84"/><path d="M300 235 L8 81"/><path d="M300 235 L10 78"/><path d="M300 235 L11 75"/><path d="M300 235 L13 72"/><path d="M300 235 L15 69"/><path d="M300 235 L16 66"/><path d="M300 235 L18 63"/><path d="M300 235 L20 60"/><path d="M300 235 L22 58"/><path d="M300 235 L24 55"/><path d="M300 235 L25 52"/><path d="M300 235 L27 49"/><path d="M300 235 L29 46"/><path d="M300 235 L31 44"/><path d="M300 235 L33 41"/><path d="M300 235 L35 38"/><path d="M300 235 L37 36"/><path d="M300 235 L39 33"/><path d="M300 235 L41 30"/><path d="M300 235 L43 28"/><path d="M300 235 L45 25"/><path d="M300 235 L47 23"/><path d="M300 235 L50 20"/><path d="M300 235 L52 18"/><path d="M300 235 L54 15"/><path d="M300 235 L56 13"/><path d="M300 235 L59 10"/><path d="M300 235 L61 8"/><path d="M300 235 L63 5"/><path d="M300 235 L65 3"/><path d="M300 235 L68 0"/><path d="M300 235 L70 -2"/><path d="M300 235 L73 -4"/><path d="M300 235 L75 -6"/><path d="M300 235 L78 -9"/><path d="M300 235 L80 -11"/><path d="M300 235 L83 -13"/><path d="M300 235 L85 -15"/><path d="M300 235 L88 -18"/><path d="M300 235 L90 -20"/><path d="M300 235 L93 -22"/><path d="M300 235 L95 -24"/><path d="M300 235 L98 -26"/><path d="M300 235 L101 -28"/><path d="M300 235 L103 -30"/><path d="M300 235 L106 -32"/><path d="M300 235 L109 -34"/><path d="M300 235 L111 -36"/><path d="M300 235 L114 -38"/><path d="M300 235 L117 -40"/><path d="M300 235 L120 -41"/><path d="M300 235 L123 -43"/><path d="M300 235 L125 -45"/><path d="M300 235 L128 -47"/><path d="M300 235 L131 -49"/><path d="M300 235 L134 -50"/><path d="M300 235 L137 -52"/><path d="M300 235 L140 -54"/><path d="M300 235 L143 -55"/><path d="M300 235 L146 -57"/><path d="M300 235 L149 -58"/><path d="M300 235 L152 -60"/><path d="M300 235 L155 -61"/><path d="M300 235 L158 -63"/><path d="M300 235 L161 -64"/><path d="M300 235 L164 -66"/><path d="M300 235 L167 -67"/><path d="M300 235 L170 -68"/><path d="M300 235 L173 -70"/><path d="M300 235 L176 -71"/><path d="M300 235 L179 -72"/><path d="M300 235 L182 -73"/><path d="M300 235 L185 -74"/><path d="M300 235 L189 -76"/><path d="M300 235 L192 -77"/><path d="M300 235 L195 -78"/><path d="M300 235 L198 -79"/><path d="M300 235 L201 -80"/><path d="M300 235 L204 -81"/><path d="M300 235 L208 -82"/><path d="M300 235 L211 -83"/><path d="M300 235 L214 -84"/><path d="M300 235 L217 -84"/><path d="M300 235 L221 -85"/><path d="M300 235 L224 -86"/><path d="M300 235 L227 -87"/><path d="M300 235 L230 -88"/><path d="M300 235 L234 -88"/><path d="M300 235 L237 -89"/><path d="M300 235 L240 -90"/><path d="M300 235 L243 -90"/><path d="M300 235 L247 -91"/><path d="M300 235 L250 -91"/><path d="M300 235 L253 -92"/><path d="M300 235 L257 -92"/><path d="M300 235 L260 -93"/><path d="M300 235 L263 -93"/><path d="M300 235 L267 -93"/><path d="M300 235 L270 -94"/><path d="M300 235 L273 -94"/><path d="M300 235 L277 -94"/><path d="M300 235 L280 -94"/><path d="M300 235 L283 -95"/><path d="M300 235 L287 -95"/><path d="M300 235 L290 -95"/><path d="M300 235 L293 -95"/><path d="M300 235 L297 -95"/><path d="M300 235 L300 -95"/><path d="M300 235 L303 -95"/><path d="M300 235 L307 -95"/><path d="M300 235 L310 -95"/><path d="M300 235 L313 -95"/><path d="M300 235 L317 -95"/><path d="M300 235 L320 -94"/><path d="M300 235 L323 -94"/><path d="M300 235 L327 -94"/><path d="M300 235 L330 -94"/><path d="M300 235 L333 -93"/><path d="M300 235 L337 -93"/><path d="M300 235 L340 -93"/><path d="M300 235 L343 -92"/><path d="M300 235 L347 -92"/><path d="M300 235 L350 -91"/><path d="M300 235 L353 -91"/><path d="M300 235 L357 -90"/><path d="M300 235 L360 -90"/><path d="M300 235 L363 -89"/><path d="M300 235 L366 -88"/><path d="M300 235 L370 -88"/><path d="M300 235 L373 -87"/><path d="M300 235 L376 -86"/><path d="M300 235 L379 -85"/><path d="M300 235 L383 -84"/><path d="M300 235 L386 -84"/><path d="M300 235 L389 -83"/><path d="M300 235 L392 -82"/><path d="M300 235 L396 -81"/><path d="M300 235 L399 -80"/><path d="M300 235 L402 -79"/><path d="M300 235 L405 -78"/><path d="M300 235 L408 -77"/><path d="M300 235 L411 -76"/><path d="M300 235 L415 -74"/><path d="M300 235 L418 -73"/><path d="M300 235 L421 -72"/><path d="M300 235 L424 -71"/><path d="M300 235 L427 -70"/><path d="M300 235 L430 -68"/><path d="M300 235 L433 -67"/><path d="M300 235 L436 -66"/><path d="M300 235 L439 -64"/><path d="M300 235 L442 -63"/><path d="M300 235 L445 -61"/><path d="M300 235 L448 -60"/><path d="M300 235 L451 -58"/><path d="M300 235 L454 -57"/><path d="M300 235 L457 -55"/><path d="M300 235 L460 -54"/><path d="M300 235 L463 -52"/><path d="M300 235 L466 -50"/><path d="M300 235 L469 -49"/><path d="M300 235 L472 -47"/><path d="M300 235 L475 -45"/><path d="M300 235 L477 -43"/><path d="M300 235 L480 -41"/><path d="M300 235 L483 -40"/><path d="M300 235 L486 -38"/><path d="M300 235 L489 -36"/><path d="M300 235 L491 -34"/><path d="M300 235 L494 -32"/><path d="M300 235 L497 -30"/><path d="M300 235 L499 -28"/><path d="M300 235 L502 -26"/><path d="M300 235 L505 -24"/><path d="M300 235 L507 -22"/><path d="M300 235 L510 -20"/><path d="M300 235 L512 -18"/><path d="M300 235 L515 -15"/><path d="M300 235 L517 -13"/><path d="M300 235 L520 -11"/><path d="M300 235 L522 -9"/><path d="M300 235 L525 -6"/><path d="M300 235 L527 -4"/><path d="M300 235 L530 -2"/><path d="M300 235 L532 0"/><path d="M300 235 L535 3"/><path d="M300 235 L537 5"/><path d="M300 235 L539 8"/><path d="M300 235 L541 10"/><path d="M300 235 L544 13"/><path d="M300 235 L546 15"/><path d="M300 235 L548 18"/><path d="M300 235 L550 20"/><path d="M300 235 L553 23"/><path d="M300 235 L555 25"/><path d="M300 235 L557 28"/><path d="M300 235 L559 30"/><path d="M300 235 L561 33"/><path d="M300 235 L563 36"/><path d="M300 235 L565 38"/><path d="M300 235 L567 41"/><path d="M300 235 L569 44"/><path d="M300 235 L571 46"/><path d="M300 235 L573 49"/><path d="M300 235 L575 52"/><path d="M300 235 L576 55"/><path d="M300 235 L578 58"/><path d="M300 235 L580 60"/><path d="M300 235 L582 63"/><path d="M300 235 L584 66"/><path d="M300 235 L585 69"/><path d="M300 235 L587 72"/><path d="M300 235 L589 75"/><path d="M300 235 L590 78"/><path d="M300 235 L592 81"/><path d="M300 235 L593 84"/><path d="M300 235 L595 87"/><path d="M300 235 L596 90"/><path d="M300 235 L598 93"/><path d="M300 235 L599 96"/><path d="M300 235 L601 99"/><path d="M300 235 L602 102"/><path d="M300 235 L603 105"/><path d="M300 235 L605 108"/><path d="M300 235 L606 111"/><path d="M300 235 L607 114"/><path d="M300 235 L608 117"/><path d="M300 235 L609 120"/><path d="M300 235 L611 124"/><path d="M300 235 L612 127"/><path d="M300 235 L613 130"/><path d="M300 235 L614 133"/><path d="M300 235 L615 136"/><path d="M300 235 L616 139"/><path d="M300 235 L617 143"/><path d="M300 235 L618 146"/><path d="M300 235 L619 149"/><path d="M300 235 L619 152"/><path d="M300 235 L620 156"/><path d="M300 235 L621 159"/><path d="M300 235 L622 162"/><path d="M300 235 L623 165"/><path d="M300 235 L623 169"/><path d="M300 235 L624 172"/><path d="M300 235 L625 175"/><path d="M300 235 L625 178"/><path d="M300 235 L626 182"/><path d="M300 235 L626 185"/><path d="M300 235 L627 188"/><path d="M300 235 L627 192"/><path d="M300 235 L628 195"/><path d="M300 235 L628 198"/><path d="M300 235 L628 202"/><path d="M300 235 L629 205"/><path d="M300 235 L629 208"/><path d="M300 235 L629 212"/><path d="M300 235 L629 215"/><path d="M300 235 L630 218"/><path d="M300 235 L630 222"/><path d="M300 235 L630 225"/><path d="M300 235 L630 228"/><path d="M300 235 L630 232"/><path d="M300 235 L630 235"/></g>
</defs>
<clipPath id="cfR"><path d="M306.0 214.0 C314.3 198.0 337.7 170.3 360.0 150.0 C382.3 129.7 413.3 107.7 440.0 92.0 C466.7 76.3 500.0 62.7 520.0 56.0 C540.0 49.3 552.3 49.7 560.0 52.0 C567.7 54.3 566.7 60.7 566.0 70.0 C565.3 79.3 559.3 95.3 556.0 108.0 C552.7 120.7 548.0 133.3 546.0 146.0 C544.0 158.7 546.0 171.7 544.0 184.0 C542.0 196.3 539.3 208.7 534.0 220.0 C528.7 231.3 527.7 245.0 512.0 252.0 C496.3 259.0 465.3 261.3 440.0 262.0 C414.7 262.7 381.7 258.7 360.0 256.0 C338.3 253.3 319.0 253.0 310.0 246.0 C301.0 239.0 297.7 230.0 306.0 214.0 Z"/></clipPath><clipPath id="chR"><path d="M312.0 252.0 C325.3 240.7 368.7 259.0 400.0 262.0 C431.3 265.0 478.0 263.7 500.0 270.0 C522.0 276.3 525.7 288.3 532.0 300.0 C538.3 311.7 539.0 326.3 538.0 340.0 C537.0 353.7 532.0 368.7 526.0 382.0 C520.0 395.3 511.3 408.3 502.0 420.0 C492.7 431.7 481.7 443.3 470.0 452.0 C458.3 460.7 444.3 468.3 432.0 472.0 C419.7 475.7 406.7 476.7 396.0 474.0 C385.3 471.3 377.3 466.7 368.0 456.0 C358.7 445.3 348.0 431.0 340.0 410.0 C332.0 389.0 324.7 356.3 320.0 330.0 C315.3 303.7 298.7 263.3 312.0 252.0 Z"/></clipPath>
  <g clip-path="url(#chR)" stroke="url(#ir)" stroke-width=".7" opacity=".55"><use href="#rh"/></g>
  <g clip-path="url(#cfR)" stroke="url(#ir)" stroke-width=".7" opacity=".55"><use href="#rf"/></g>
  <path d="M312.0 252.0 C325.3 240.7 368.7 259.0 400.0 262.0 C431.3 265.0 478.0 263.7 500.0 270.0 C522.0 276.3 525.7 288.3 532.0 300.0 C538.3 311.7 539.0 326.3 538.0 340.0 C537.0 353.7 532.0 368.7 526.0 382.0 C520.0 395.3 511.3 408.3 502.0 420.0 C492.7 431.7 481.7 443.3 470.0 452.0 C458.3 460.7 444.3 468.3 432.0 472.0 C419.7 475.7 406.7 476.7 396.0 474.0 C385.3 471.3 377.3 466.7 368.0 456.0 C358.7 445.3 348.0 431.0 340.0 410.0 C332.0 389.0 324.7 356.3 320.0 330.0 C315.3 303.7 298.7 263.3 312.0 252.0 Z" fill="url(#ir)" fill-opacity=".10" stroke="url(#ir)" stroke-width="2.2"/>
  <path d="M306.0 214.0 C314.3 198.0 337.7 170.3 360.0 150.0 C382.3 129.7 413.3 107.7 440.0 92.0 C466.7 76.3 500.0 62.7 520.0 56.0 C540.0 49.3 552.3 49.7 560.0 52.0 C567.7 54.3 566.7 60.7 566.0 70.0 C565.3 79.3 559.3 95.3 556.0 108.0 C552.7 120.7 548.0 133.3 546.0 146.0 C544.0 158.7 546.0 171.7 544.0 184.0 C542.0 196.3 539.3 208.7 534.0 220.0 C528.7 231.3 527.7 245.0 512.0 252.0 C496.3 259.0 465.3 261.3 440.0 262.0 C414.7 262.7 381.7 258.7 360.0 256.0 C338.3 253.3 319.0 253.0 310.0 246.0 C301.0 239.0 297.7 230.0 306.0 214.0 Z" fill="url(#ir)" fill-opacity=".10" stroke="url(#ir)" stroke-width="2.2"/>
  <g stroke="url(#ir)" stroke-width="1.3" opacity=".9"><path d="M316 226 Q451.0 126.0 566 70"/><path d="M316 226 Q446.0 145.0 556 108"/><path d="M316 226 Q441.0 164.0 546 146"/><path d="M316 226 Q440.0 183.0 544 184"/><path d="M316 226 Q435.0 201.0 534 220"/><path d="M318 262 Q437.0 289.0 532 300"/><path d="M318 262 Q440.0 309.0 538 340"/><path d="M318 262 Q434.0 330.0 526 382"/><path d="M318 262 Q422.0 349.0 502 420"/><path d="M318 262 Q406.0 365.0 470 452"/><path d="M318 262 Q387.0 375.0 432 472"/><path d="M318 262 Q369.0 376.0 396 474"/></g>
<clipPath id="cfL"><path d="M294.0 214.0 C285.7 198.0 262.3 170.3 240.0 150.0 C217.7 129.7 186.7 107.7 160.0 92.0 C133.3 76.3 100.0 62.7 80.0 56.0 C60.0 49.3 47.7 49.7 40.0 52.0 C32.3 54.3 33.3 60.7 34.0 70.0 C34.7 79.3 40.7 95.3 44.0 108.0 C47.3 120.7 52.0 133.3 54.0 146.0 C56.0 158.7 54.0 171.7 56.0 184.0 C58.0 196.3 60.7 208.7 66.0 220.0 C71.3 231.3 72.3 245.0 88.0 252.0 C103.7 259.0 134.7 261.3 160.0 262.0 C185.3 262.7 218.3 258.7 240.0 256.0 C261.7 253.3 281.0 253.0 290.0 246.0 C299.0 239.0 302.3 230.0 294.0 214.0 Z"/></clipPath><clipPath id="chL"><path d="M288.0 252.0 C274.7 240.7 231.3 259.0 200.0 262.0 C168.7 265.0 122.0 263.7 100.0 270.0 C78.0 276.3 74.3 288.3 68.0 300.0 C61.7 311.7 61.0 326.3 62.0 340.0 C63.0 353.7 68.0 368.7 74.0 382.0 C80.0 395.3 88.7 408.3 98.0 420.0 C107.3 431.7 118.3 443.3 130.0 452.0 C141.7 460.7 155.7 468.3 168.0 472.0 C180.3 475.7 193.3 476.7 204.0 474.0 C214.7 471.3 222.7 466.7 232.0 456.0 C241.3 445.3 252.0 431.0 260.0 410.0 C268.0 389.0 275.3 356.3 280.0 330.0 C284.7 303.7 301.3 263.3 288.0 252.0 Z"/></clipPath>
  <g clip-path="url(#chL)" stroke="url(#ir)" stroke-width=".7" opacity=".55"><use href="#rh"/></g>
  <g clip-path="url(#cfL)" stroke="url(#ir)" stroke-width=".7" opacity=".55"><use href="#rf"/></g>
  <path d="M288.0 252.0 C274.7 240.7 231.3 259.0 200.0 262.0 C168.7 265.0 122.0 263.7 100.0 270.0 C78.0 276.3 74.3 288.3 68.0 300.0 C61.7 311.7 61.0 326.3 62.0 340.0 C63.0 353.7 68.0 368.7 74.0 382.0 C80.0 395.3 88.7 408.3 98.0 420.0 C107.3 431.7 118.3 443.3 130.0 452.0 C141.7 460.7 155.7 468.3 168.0 472.0 C180.3 475.7 193.3 476.7 204.0 474.0 C214.7 471.3 222.7 466.7 232.0 456.0 C241.3 445.3 252.0 431.0 260.0 410.0 C268.0 389.0 275.3 356.3 280.0 330.0 C284.7 303.7 301.3 263.3 288.0 252.0 Z" fill="url(#ir)" fill-opacity=".10" stroke="url(#ir)" stroke-width="2.2"/>
  <path d="M294.0 214.0 C285.7 198.0 262.3 170.3 240.0 150.0 C217.7 129.7 186.7 107.7 160.0 92.0 C133.3 76.3 100.0 62.7 80.0 56.0 C60.0 49.3 47.7 49.7 40.0 52.0 C32.3 54.3 33.3 60.7 34.0 70.0 C34.7 79.3 40.7 95.3 44.0 108.0 C47.3 120.7 52.0 133.3 54.0 146.0 C56.0 158.7 54.0 171.7 56.0 184.0 C58.0 196.3 60.7 208.7 66.0 220.0 C71.3 231.3 72.3 245.0 88.0 252.0 C103.7 259.0 134.7 261.3 160.0 262.0 C185.3 262.7 218.3 258.7 240.0 256.0 C261.7 253.3 281.0 253.0 290.0 246.0 C299.0 239.0 302.3 230.0 294.0 214.0 Z" fill="url(#ir)" fill-opacity=".10" stroke="url(#ir)" stroke-width="2.2"/>
  <g stroke="url(#ir)" stroke-width="1.3" opacity=".9"><path d="M 284 226 Q 149 126 34 70"/><path d="M 284 226 Q 154 145 44 108"/><path d="M 284 226 Q 159 164 54 146"/><path d="M 284 226 Q 160 183 56 184"/><path d="M 284 226 Q 165 201 66 220"/><path d="M 282 262 Q 163 289 68 300"/><path d="M 282 262 Q 160 309 62 340"/><path d="M 282 262 Q 166 330 74 382"/><path d="M 282 262 Q 178 349 98 420"/><path d="M 282 262 Q 194 365 130 452"/><path d="M 282 262 Q 213 375 168 472"/><path d="M 282 262 Q 231 376 204 474"/></g>
<path d="M300 198 C306 198 308 214 307 250 C306 300 304 350 300 372 C296 350 294 300 293 250 C292 214 294 198 300 198 Z" fill="#1d2f6f" stroke="none"/>
<circle cx="300" cy="191" r="7" fill="#1d2f6f"/>
<path d="M297 186 C290 150 276 122 262 106 M303 186 C310 150 324 122 338 106" stroke="#1d2f6f" stroke-width="1.8"/>
</svg>