<svg xmlns="http://www.w3.org/2000/svg" viewBox="0 0 400 400" role="img" aria-label="Aqua Delphinus mission logo, NBI-005">
<defs>
<linearGradient id="rim" x1="0" y1="0" x2="1" y2="1"><stop offset="0" stop-color="#fbe9a8"/><stop offset=".35" stop-color="#d9ae4f"/><stop offset=".6" stop-color="#8f6a22"/><stop offset=".82" stop-color="#e6c26a"/><stop offset="1" stop-color="#6e4f16"/></linearGradient>
<linearGradient id="gold" x1="0" y1="0" x2="0" y2="1"><stop offset="0" stop-color="#f7e3a0"/><stop offset=".55" stop-color="#d6aa4a"/><stop offset="1" stop-color="#b08533"/></linearGradient>
<radialGradient id="field" cx="50%" cy="40%" r="62%"><stop offset="0" stop-color="#24949f"/><stop offset="1" stop-color="#00484f"/></radialGradient>
<radialGradient id="glow"><stop offset="0" stop-color="#fff7df" stop-opacity=".85"/><stop offset="1" stop-color="#fff7df" stop-opacity="0"/></radialGradient>
<clipPath id="clip"><circle cx="200" cy="200" r="144"/></clipPath>
</defs>
<circle cx="200" cy="200" r="198" fill="url(#rim)"/>
<circle cx="200" cy="200" r="186" fill="#003439"/>
<circle cx="200" cy="200" r="147" fill="url(#gold)"/>
<circle cx="200" cy="200" r="144" fill="url(#field)"/>
<g clip-path="url(#clip)">
<circle cx="257.5" cy="305.0" r="1.04" fill="#fff" opacity="0.40"/>
<circle cx="250.7" cy="244.2" r="0.63" fill="#fff" opacity="0.26"/>
<circle cx="238.8" cy="186.2" r="0.86" fill="#fff" opacity="0.34"/>
<circle cx="219.7" cy="189.1" r="1.16" fill="#fff" opacity="0.44"/>
<circle cx="217.7" cy="302.6" r="0.62" fill="#fff" opacity="0.26"/>
<circle cx="209.7" cy="234.2" r="0.54" fill="#fff" opacity="0.23"/>
<circle cx="206.6" cy="145.3" r="0.45" fill="#fff" opacity="0.20"/>
<circle cx="201.9" cy="142.7" r="1.12" fill="#fff" opacity="0.42"/>
<circle cx="169.3" cy="172.2" r="0.92" fill="#fff" opacity="0.36"/>
<circle cx="142.5" cy="135.0" r="0.70" fill="#fff" opacity="0.28"/>
<circle cx="142.4" cy="135.0" r="0.97" fill="#fff" opacity="0.37"/>
<circle cx="65.1" cy="218.8" r="0.69" fill="#fff" opacity="0.28"/>
<line x1="257.5" y1="305.0" x2="219.7" y2="189.1" stroke="#e8c874" stroke-width="1.8" stroke-linecap="round" opacity=".8"/>
<line x1="219.7" y1="189.1" x2="201.9" y2="142.7" stroke="#e8c874" stroke-width="1.8" stroke-linecap="round" opacity=".8"/>
<line x1="201.9" y1="142.7" x2="142.5" y2="135.0" stroke="#e8c874" stroke-width="1.8" stroke-linecap="round" opacity=".8"/>
<line x1="142.5" y1="135.0" x2="169.3" y2="172.2" stroke="#e8c874" stroke-width="1.8" stroke-linecap="round" opacity=".8"/>
<line x1="169.3" y1="172.2" x2="219.7" y2="189.1" stroke="#e8c874" stroke-width="1.8" stroke-linecap="round" opacity=".8"/>
<circle cx="257.5" cy="305.0" r="7.7" fill="url(#glow)" opacity=".45"/>
<circle cx="257.5" cy="305.0" r="2.6" fill="#fff4d0"/>
<circle cx="219.7" cy="189.1" r="8.7" fill="url(#glow)" opacity=".45"/>
<circle cx="219.7" cy="189.1" r="2.9" fill="#fff4d0"/>
<circle cx="201.9" cy="142.7" r="8.4" fill="url(#glow)" opacity=".45"/>
<circle cx="201.9" cy="142.7" r="2.8" fill="#fff4d0"/>
<circle cx="142.5" cy="135.0" r="7.5" fill="url(#glow)" opacity=".45"/>
<circle cx="142.5" cy="135.0" r="2.5" fill="#fff4d0"/>
<circle cx="169.3" cy="172.2" r="7.5" fill="url(#glow)" opacity=".45"/>
<circle cx="169.3" cy="172.2" r="2.5" fill="#fff4d0"/>
</g>
<path d="M179.58984375 75.2646484375H184.072265625V96.0H179.58984375Z M195.759765625 85.3916015625Q194.830078125 84.7109375 194.0 84.7109375Q191.8916015625 84.7109375 191.8916015625 88.861328125Q191.8916015625 93.078125 193.966796875 93.078125Q194.763671875 93.078125 195.7265625 92.4638671875V95.8671875Q194.06640625 96.4814453125 192.904296875 96.4814453125Q190.513671875 96.4814453125 189.12744140625 94.5888671875Q187.7412109375 92.6962890625 187.7412109375 89.3759765625Q187.7412109375 84.84375 189.21875 83.12548828125Q190.6962890625 81.4072265625 193.0205078125 81.4072265625Q194.5478515625 81.4072265625 195.759765625 82.0546875Z M197.45703125 74.64306640625 197.50341796875 73.71533203125Q197.5498046875 72.4072265625 197.91162109375 71.68359375Q198.2734375 70.9599609375 199.113037109375 70.56103515625Q199.95263671875 70.162109375 200.91748046875 70.162109375Q202.4296875 70.162109375 203.32958984375 71.010986328125Q204.2294921875 71.85986328125 204.2294921875 73.279296875Q204.2294921875 74.095703125 203.8583984375 75.000244140625Q203.4873046875 75.90478515625 202.615234375 77.2314453125L200.95458984375 79.736328125H203.83056640625V82.0H197.345703125V81.2392578125L201.2607421875 75.23681640625Q201.4091796875 75.0048828125 201.608642578125 74.4296875Q201.80810546875 73.8544921875 201.80810546875 73.4833984375Q201.80810546875 72.9267578125 201.525146484375 72.588134765625Q201.2421875 72.24951171875 200.76904296875 72.24951171875Q200.21240234375 72.24951171875 199.910888671875 72.73193359375Q199.609375 73.21435546875 199.609375 74.095703125V74.64306640625Z" fill="url(#gold)"/>
<path d="M110.90514004501448 70.53186926509767 107.82219319359591 72.86651653427658 105.61894683602753 70.95191767825277 101.77694110073696 73.86138340385831 102.96421633681513 76.545354655407 99.88126948539654 78.8800019245859 93.0048967079419 61.13731369534851 96.20462184918692 58.71423281748858ZM103.37715261034775 68.93788729761422 97.27295974914112 63.546240197563314 97.22624843321053 63.581613641035716 100.56279582553003 71.0691372668268Z M126.20420458337745 61.66769951555763 125.19489932755737 63.93231798436543 122.6998060115276 62.82105168563843Q121.85417059636315 64.24009111708871 120.41676806152364 65.09009877672507Q118.46240496590852 66.24581094552889 116.6199413612104 66.00794575470567Q114.77747775651227 65.77008056388247 113.19318882783602 64.44355269431453Q111.60889989915977 63.11702482474659 109.97599044775308 60.35569890255491Q107.3514053934373 55.9174033563838 107.76148732204166 53.07114432159682Q108.17156925064602 50.22488528680984 110.68071928953252 48.74109998621654Q112.60986479681712 47.600300232494064 114.44114409020425 47.81925223206938Q116.27242338359137 48.0382042316447 117.86816929597484 49.34093899573638Q119.4639152083583 50.64367375982806 121.13410569746834 53.468043652846035Q123.68412867637741 57.780251257364554 123.3737041697639 60.36336164905838ZM119.65870764671223 59.088547751422134Q118.62799272997614 57.23044776729692 118.10605820212925 56.347832175728804Q116.58499186383261 53.77563816601601 115.84952585236496 52.89165921246682Q115.11405984089733 52.00768025891763 114.26156994079157 51.745989030648445Q113.40908004068582 51.48429780237926 112.589508419944 51.9689512925228Q111.73211041670639 52.47597340528834 111.65770351501578 53.702726354185316Q111.58329661332517 54.92947930308229 113.31313676276056 57.854719549422335Q114.75964102565051 60.300825617482545 115.45809867181102 61.079054303481286Q116.15655631797152 61.85728298948003 116.9465475920434 62.07084266200425Q117.7365388661153 62.28440233452849 118.46784892770032 61.851942297169636Q118.84611275265807 61.62825607094955 119.16527226208291 61.218286897959075L115.6135224766408 59.55763072607802L116.65034894170748 57.31077363806007L119.60827247005119 59.11837258158481Z M139.4542423343798 49.44770200418395Q140.50532755293503 51.801836320436905 139.69437808759477 53.77615444169257Q138.88342862225448 55.750472562948225 136.38216091123573 56.86725060766314Q133.78726285809327 58.02583317811604 131.77437187195906 57.2722114210988Q129.76148088582485 56.51858966408156 128.61484246558283 53.95044313726016L123.38330467322847 42.23327460863752L127.02151225289212 40.608870179961286L131.9962508157131 51.75088089268121Q132.5217934249907 52.927948050807686 133.26693082153673 53.35726020979553Q134.01206821808273 53.786572368783375 134.84136553403548 53.41630371224688Q135.61715979734612 53.069923356132094 135.79053240837413 52.25457373471598Q135.96390501940218 51.43922411329987 135.49808316117884 50.39591458677868L130.4457076219873 39.08001895297188L134.0972909648115 37.44964244919022Z M159.22957829463493 48.21836850147201 155.54416857178592 49.39007423879945 154.1063488088478 46.84986605423454 149.51354654060032 48.31005994658578 149.7368562812359 51.23639843095178 146.05144655838689 52.408104168279216 145.4917147596563 33.38774169833853 149.3167233356436 32.1716531679305ZM152.66538086138092 44.20306211385675 148.71093125396862 37.08313534171013 148.65509171271333 37.10088845894237 149.3010485007498 45.272687427098845Z M170.5583420259704 27.10125007477152 174.89758180802403 26.505958914853853Q178.5257087160956 26.008223831310648 180.9848540453255 28.036561353185977Q183.4439993745554 30.064898875061306 184.04128147480722 34.41865116474722Q184.6445363960616 38.81594097732999 182.87925857148252 41.468175129513554Q181.11398074690345 44.120409281697114 177.239141209083 44.65199035092125L173.04502650335223 45.227372107497196ZM174.96821818477346 29.823037580806776 176.5549976311092 41.389506163739014 177.01939787534235 41.32579607304548Q178.19491099355756 41.16452990597749 179.33335334932718 40.032497123006465Q180.47179570509684 38.90046434003544 179.97605156188783 35.28684993959614Q179.60971854040002 32.61654853525545 178.98276869628523 31.549278500797726Q178.35581885217044 30.482008466340005 177.36587513863782 30.05596241736601Q176.37593142510522 29.629916368392013 175.40359341374204 29.76330937078159Z M199.88466453935266 42.917068007635415 190.76372871674258 43.22034665694649 190.15571100728909 24.93455397245218 198.70567331933447 24.650260663948693 198.82299298945318 28.178584152309885 194.19664351923686 28.332414093212456 194.32029163629144 32.051062085095204 198.2878255173947 31.919138306662937 198.40076395501939 35.31569867720151 194.43323007391612 35.447622455633784 194.56758787040064 39.488358068860705 199.76491085118167 39.31554278715054Z M213.81191638671046 43.528035410818816 205.2706635407767 43.04878803786366 206.29562924081264 24.78162227661146 210.21524527285075 25.001550865570334 209.39215432238151 39.670860119802484 214.0137911362772 39.93017890379877Z M221.53193111973326 25.966002439504035 226.60105932288684 26.733848521697762Q232.51021448542014 27.628937668940733 231.6524207193123 33.291878033035154Q231.26849767821543 35.826442134611945 229.52376370569033 36.97704230229375Q227.77902973316526 38.127642469975555 224.96928438627444 37.702036355845316L223.82510973470548 37.528722525864445L222.745737527736 44.65446845715462L218.79181752927622 44.05554851304351ZM224.21165387042123 34.68342919425107 224.99374793605062 34.801896875503814Q226.0365400235565 34.95985378384081 226.70954426300074 34.38028242070249Q227.38254850244496 33.80071105756417 227.56683156217144 32.58412028880731Q227.97269306275956 29.904723952854706 225.90159211118538 29.59100398212984L225.00363225805532 29.454985533284095Z M239.21426765550086 29.054484510684226 243.03895653176443 30.06165777017801 241.25961710665874 36.818608118243624 244.82932672450474 37.75863649377116 246.60866614961043 31.00168614570554 250.4475205402305 32.01258967653078 245.7884116472389 49.70531710783886 241.94955725661882 48.69441357701362 243.91914051962888 41.21502199676489 240.37776193049595 40.28245416390027 238.40817866748588 47.76184574414901 234.55515876250925 46.747211941992305Z M258.05832322779935 34.58823878517858 261.77670945206813 35.9359208181603 255.54243219579342 53.13690005561103 251.82404597152467 51.78921802262931Z M273.0940358668559 60.89744501892247 269.32034221942615 59.11188336103427 270.0466159265603 46.68564054916383 269.9936518051929 46.66058003466715 265.05673044934764 57.09451194405182 261.58758049978064 55.45304824451951 269.42525640861624 38.88851928685426 273.33136035946455 40.736732230984146 272.6140630441111 52.97275703563144 272.68026819582036 53.00408267875228 277.5420080081756 42.72904313346992 280.93171177569144 44.332916061257215Z M291.0377068427091 65.67234411355953Q289.67248246503954 67.85932626123285 287.5819616324525 68.28978384076146Q285.4914407998654 68.72024142029007 283.1677722679625 67.26969051901618Q280.75712149154987 65.76484092090317 280.25756738057316 63.67435734887579Q279.75801326959646 61.583873776848414 281.24734895432687 59.198075070295694L288.04244301590927 48.31286847164891L291.42232451685896 50.422760691683635L284.9607795930026 60.77364778834206Q284.27816740416785 61.86713886217872 284.3384101664146 62.72499052720191Q284.3986529286613 63.58284219222511 285.16906709431896 64.06377350708597Q285.8897771202568 64.51367699518161 286.66286929821047 64.20193743756204Q287.4359614761642 63.89019787994247 288.0410040980859 62.92096715540543L294.60338945892926 52.4085416046575L297.9956969948089 54.526190781383534Z M307.51332381532205 68.06843937061771Q307.39571329829323 65.6610304074749 306.2608967333208 64.78183407320908Q305.7513872551699 64.38709286190607 305.0917151614428 64.41339293182475Q304.43204306771565 64.43969300174342 304.10907298574045 64.8565643929578Q303.5259325599519 65.60924884931705 303.9896726806901 67.61772920357745Q304.4933688234316 69.69422603540188 304.57819930883693 70.73279025688976Q304.6630297942422 71.77135447837762 304.3618740866027 72.85368784375262Q304.0607183789632 73.93602120912765 303.3071215210211 74.90872112196116Q301.8268419786348 76.819381665027 299.65420974356573 77.10035454892531Q297.4815775084967 77.38132743282364 295.5593372045638 75.89207649927135Q293.9844897266429 74.6719673006984 293.34934575702414 72.38244964501594L295.99590615098754 68.96642018923157Q296.2232670607978 71.6626915628997 297.670737169181 72.78411545864691Q298.3192037777367 73.28651336394165 299.03155793639695 73.26396794578677Q299.7439120950572 73.2414225276319 300.1476246975262 72.72033328861394Q300.7487079056467 71.94448931052055 300.3727049380186 70.1336953674873Q299.7852251592666 67.23254408464007 299.8138412482865 66.05950842833039Q299.8424573373065 64.88647277202072 300.15795907830193 63.91717074282745Q300.47346081929743 62.94786871363418 301.07454402741797 62.17202473554078Q302.3664243553187 60.50453917068333 304.37929097249423 60.3221521569429Q306.39215758966975 60.13976514320247 308.198600284932 61.53930216509497Q309.5650120672458 62.59792632268034 310.32136925027305 64.44397421922616Z" fill="url(#gold)"/>
<path d="M168.89466320245452 373.30938724407105 165.62644531276618 372.6214133347291 163.88198970448752 362.8174435093075 163.83611997971997 362.80778773514135 161.93393246897799 371.84412351434975 158.9294654967031 371.2116703064634 161.9493088671831 356.86591388541046 165.3322010687903 357.57802723016795 167.04828684360814 367.2323181635791 167.10562399956757 367.24438788128685 168.97884418781095 358.3456612763811 171.9145065729345 358.9636308230181Z M182.38115192227627 367.7280766947851Q183.57856586029007 368.46369185954217 183.98732892384325 369.3750692131813Q184.39609198739643 370.28644656682036 184.2294318097437 371.65917916836406Q184.04158601628762 373.2064116768837 182.80207720600097 374.13016269192303Q181.56256839571432 375.05391370696236 179.94553592440434 374.85759366718503L174.7454386965226 374.2262623162463L176.5094943057452 359.69623672871984L180.96505859719645 360.2371761188978Q182.84965759253615 360.4659807695736 183.9272994430434 361.65334429690597Q185.00494129355064 362.8407078242384 184.81003362816017 364.44610696841664Q184.65184769682875 365.74903960717 184.07601507734583 366.50546515652843Q183.5001824578629 367.2618907058869 182.38115192227627 367.7280766947851ZM178.91639228216644 366.221386913118 179.5562252744114 366.2990675043968Q180.3472915193688 366.39510896270514 180.87987955403332 365.946260395144Q181.41246758869787 365.4974118275829 181.51557091894065 364.6481789469668Q181.75284981593776 362.69377998883675 179.786817530676 362.4550887174528L179.37965108106556 362.4056556139117ZM178.18478234975868 372.2474503673523 179.09500661480712 372.3343489152661Q179.89911856128313 372.4201694208296 180.40050471653802 371.9852399079988Q180.9018908717929 371.550310395168 181.01064369958323 370.6545442060251Q181.2436854734197 368.7350452292902 179.28928651528963 368.4977663322931L178.64945352304468 368.4200857410143Z M190.08878925913103 361.0649053144298 193.2484699265166 361.2313672742168 192.47842923105742 375.8478159911226 189.31874856367185 375.6813540313356Z M202.10348238058327 372.11271944652754 197.8144246937907 372.10629385148025 197.81793594791492 369.7625464816482 202.1069936347075 369.76897207669555Z M210.05999332872068 360.7090590822354Q211.9548970958838 360.5932806101555 213.2267902947958 362.1944743848243Q214.49868349370777 363.79566815949306 214.75525430529225 367.99486848302126Q214.99324338678983 371.8899484488566 214.03910947949078 373.8560940807043Q213.08497557219175 375.82223971255195 210.87425451050143 375.9573145966452Q208.9910476801726 376.0723783867987 207.6943312437391 374.44922010231403Q206.39761480730562 372.82606181782944 206.14533208727966 368.6970431153073Q205.87661168294605 364.29899486559526 207.00330521700027 362.5629882328449Q208.1299987510545 360.82698160009454 210.01320558138332 360.7119178099411ZM210.1641940977609 363.567399761373Q209.6729227507186 363.5974164022826 209.31573744019954 364.18865968328316Q208.95855212968044 364.7799029642837 209.16723925219483 368.1954085199111Q209.3973668325018 371.96182218056873 209.8366452496075 372.52201249582424Q210.27592366671323 373.0822028110798 210.7671950137555 373.0521861701702Q211.5157989711533 373.0064465268794 211.7141703225792 372.0257262356651Q211.91254167400513 371.0450059444508 211.77246401642697 368.75240632492006L211.72743905506255 368.01549930435664Q211.55091261923704 365.1263559062745 211.18506758986052 364.326866739884Q210.81922256048398 363.5273775734935 210.1875879714296 363.5659703975201Z M222.35606213017553 359.46413898711853Q224.23650482607297 359.2033704904549 225.62745645948434 360.702299230251Q227.01840809289573 362.20122797004717 227.5962839589589 366.36838184552363Q228.13230809098968 370.2337362759795 227.3317795356392 372.26726871751066Q226.53125098028872 374.3008011590419 224.33740116840838 374.6050310718161Q222.46856614347325 374.86418988640156 221.0511798039809 373.3452651688371Q219.63379346448852 371.82634045127264 219.06557569089435 367.7288326015702Q218.46033522950225 363.3643483197342 219.4505658254467 361.54704242487543Q220.4407964213911 359.7297365300167 222.30963144632622 359.4705777154312ZM222.67917853147515 362.306068794396Q222.1916563510573 362.3736754416792 221.88086895461052 362.9905718329709Q221.57008155816374 363.6074682242626 222.0401087249895 366.996908145263Q222.5584263541604 370.73457819513317 223.0393751062693 371.2594277115528Q223.52032385837822 371.78427722797244 224.00784603879606 371.71667058068925Q224.75073698038517 371.61365092768636 224.87330697010736 370.6206050675744Q224.99587695982956 369.6275592074624 224.68037927250816 367.35245569884574L224.5789693015834 366.621172428219Q224.18137782827532 363.7540777005235 223.7552929668205 362.985002149271Q223.32920810536564 362.2159265980185 222.7023938733998 362.3028494302397Z M234.8383897366422 362.8116362696093Q237.1379323467202 362.46643705139456 238.51358896135287 363.4679780243517Q239.88924557598554 364.4695189973088 240.31592473054624 366.4274733271777Q240.8124694776666 368.706028366031 239.79587514707114 370.342831723468Q238.77928081647568 371.97963508090504 236.58087595486847 372.4587134298855Q235.02367251123005 372.7980605937467 233.1937452577732 372.38126283339705L233.01355785895132 369.51803431557823Q234.77536768080014 370.11758922802846 235.79441993435765 369.89551645167813Q236.7447720359899 369.6884148737335 237.16932190451945 368.91225104359734Q237.593871773049 368.13608721346117 237.35682779829304 367.04833480797845Q237.12477422300563 365.98348245313747 236.22412934072366 365.5380844806672Q235.3234844584417 365.0926865081969 233.9494814199372 365.39211047630965Q233.3311800526102 365.5268512619604 232.64124008059036 365.77315384805235L231.77109749837223 358.20279948272116L237.89686104503812 356.867867624885L238.47824258312377 359.5357235246479L234.56233392338595 360.3890818337693Z" fill="url(#gold)"/>
<polygon points="32.0,191.0 34.0,198.0 41.0,200.0 34.0,202.0 32.0,209.0 30.0,202.0 23.0,200.0 30.0,198.0" fill="url(#gold)"/>
<polygon points="368.0,191.0 370.0,198.0 377.0,200.0 370.0,202.0 368.0,209.0 366.0,202.0 359.0,200.0 366.0,198.0" fill="url(#gold)"/>
</svg>