<svg xmlns="http://www.w3.org/2000/svg" viewBox="0 0 400 400" role="img" aria-label="Citrine Telescopium mission logo, COSMIC-013">
<defs>
<linearGradient id="rim" x1="0" y1="0" x2="1" y2="1"><stop offset="0" stop-color="#fbe9a8"/><stop offset=".35" stop-color="#d9ae4f"/><stop offset=".6" stop-color="#8f6a22"/><stop offset=".82" stop-color="#e6c26a"/><stop offset="1" stop-color="#6e4f16"/></linearGradient>
<linearGradient id="gold" x1="0" y1="0" x2="0" y2="1"><stop offset="0" stop-color="#f7e3a0"/><stop offset=".55" stop-color="#d6aa4a"/><stop offset="1" stop-color="#b08533"/></linearGradient>
<radialGradient id="field" cx="50%" cy="40%" r="62%"><stop offset="0" stop-color="#8d6824"/><stop offset="1" stop-color="#432c00"/></radialGradient>
<radialGradient id="glow"><stop offset="0" stop-color="#fff7df" stop-opacity=".85"/><stop offset="1" stop-color="#fff7df" stop-opacity="0"/></radialGradient>
<clipPath id="clip"><circle cx="200" cy="200" r="144"/></clipPath>
</defs>
<circle cx="200" cy="200" r="198" fill="url(#rim)"/>
<circle cx="200" cy="200" r="186" fill="#312000"/>
<circle cx="200" cy="200" r="147" fill="url(#gold)"/>
<circle cx="200" cy="200" r="144" fill="url(#field)"/>
<g clip-path="url(#clip)">
<circle cx="281.9" cy="135.7" r="0.89" fill="#fff" opacity="0.35"/>
<circle cx="134.6" cy="252.5" r="0.62" fill="#fff" opacity="0.26"/>
<circle cx="132.2" cy="135.0" r="1.20" fill="#fff" opacity="0.45"/>
<circle cx="118.1" cy="305.0" r="1.02" fill="#fff" opacity="0.39"/>
<circle cx="105.8" cy="204.0" r="0.54" fill="#fff" opacity="0.23"/>
<circle cx="86.6" cy="133.1" r="0.77" fill="#fff" opacity="0.31"/>
<circle cx="83.8" cy="124.6" r="0.73" fill="#fff" opacity="0.29"/>
<line x1="281.9" y1="135.7" x2="132.2" y2="135.0" stroke="#e8c874" stroke-width="1.8" stroke-linecap="round" opacity=".8"/>
<line x1="132.2" y1="135.0" x2="118.1" y2="305.0" stroke="#e8c874" stroke-width="1.8" stroke-linecap="round" opacity=".8"/>
<circle cx="281.9" cy="135.7" r="7.5" fill="url(#glow)" opacity=".45"/>
<circle cx="281.9" cy="135.7" r="2.5" fill="#fff4d0"/>
<circle cx="132.2" cy="135.0" r="9.0" fill="url(#glow)" opacity=".45"/>
<circle cx="132.2" cy="135.0" r="3.0" fill="#fff4d0"/>
<circle cx="118.1" cy="305.0" r="7.6" fill="url(#glow)" opacity=".45"/>
<circle cx="118.1" cy="305.0" r="2.5" fill="#fff4d0"/>
</g>
<path d="M179.58984375 75.2646484375H184.072265625V96.0H179.58984375Z M195.759765625 85.3916015625Q194.830078125 84.7109375 194.0 84.7109375Q191.8916015625 84.7109375 191.8916015625 88.861328125Q191.8916015625 93.078125 193.966796875 93.078125Q194.763671875 93.078125 195.7265625 92.4638671875V95.8671875Q194.06640625 96.4814453125 192.904296875 96.4814453125Q190.513671875 96.4814453125 189.12744140625 94.5888671875Q187.7412109375 92.6962890625 187.7412109375 89.3759765625Q187.7412109375 84.84375 189.21875 83.12548828125Q190.6962890625 81.4072265625 193.0205078125 81.4072265625Q194.5478515625 81.4072265625 195.759765625 82.0546875Z M197.45703125 74.64306640625 197.50341796875 73.71533203125Q197.5498046875 72.4072265625 197.91162109375 71.68359375Q198.2734375 70.9599609375 199.113037109375 70.56103515625Q199.95263671875 70.162109375 200.91748046875 70.162109375Q202.4296875 70.162109375 203.32958984375 71.010986328125Q204.2294921875 71.85986328125 204.2294921875 73.279296875Q204.2294921875 74.095703125 203.8583984375 75.000244140625Q203.4873046875 75.90478515625 202.615234375 77.2314453125L200.95458984375 79.736328125H203.83056640625V82.0H197.345703125V81.2392578125L201.2607421875 75.23681640625Q201.4091796875 75.0048828125 201.608642578125 74.4296875Q201.80810546875 73.8544921875 201.80810546875 73.4833984375Q201.80810546875 72.9267578125 201.525146484375 72.588134765625Q201.2421875 72.24951171875 200.76904296875 72.24951171875Q200.21240234375 72.24951171875 199.910888671875 72.73193359375Q199.609375 73.21435546875 199.609375 74.095703125V74.64306640625Z" fill="url(#gold)"/>
<path d="M85.41879153581519 92.07638076405526Q84.9230407813964 93.64647422784185 83.70915102118448 95.03683089995424Q81.53185668937581 97.5306452483463 78.25159359754528 97.61276608477536Q74.97133050571473 97.69488692120443 71.48440424867096 94.65052847495869Q67.88713222399922 91.50982957155327 67.51705120391429 88.2698425368571Q67.14697018382935 85.02985550216093 69.07377932702286 82.82294014960158Q70.22986481293897 81.49879093806598 72.22423878960396 80.5953993327156L75.1152979014567 83.1195193102991Q73.49822191037312 83.7689459784933 73.11750743298056 84.04909682650964Q72.736792955588 84.32924767452596 72.38996730981317 84.72649243798664Q71.36875846392061 85.89615757484309 71.56907756176932 87.62671973887197Q71.76939665961804 89.35728190290085 74.14183066361933 91.42860173183388Q76.6246104352486 93.59626201792658 78.325739868218 93.57442727324101Q80.0268693011874 93.55259252855546 81.13478455852366 92.28361620083383Q82.04038485582461 91.24636598513095 82.27393715841812 89.3306777350045Z M76.84746838804062 75.2391343338061 79.69027830569546 72.48939348293727 92.41037579730724 85.64002158349606 89.56756587965242 88.3897624343649Z M95.63902643939232 63.48698721934909 92.88573232623169 65.7430706256234 102.22573194233031 77.14148164553946 99.17784668948994 79.63895669199128 89.85641566109727 68.26320652897367 87.04646940569054 70.5657114045129 84.77181741171026 67.7897564344538 93.38294303311801 60.733693106188454Z M118.50634925339202 65.6601927849922 115.13619985074574 67.89350631365753 107.48580064390006 62.10320451976252 107.43695789893417 62.135571382496806 112.43763819138043 69.6817754797265 109.15296359242447 71.85844699860682 99.04641070364553 56.607299883008295 103.33236157440221 53.767107678075234Q104.61448362975678 52.91747753130038 106.23035240070054 52.58474206450914Q107.8462211716443 52.2520065977179 109.10975940522754 52.97867632529004Q110.37329763881077 53.70534605286218 111.15010234443349 54.877571932043494Q112.0887413637276 56.29401153605425 112.08103987007996 57.608293445222415Q112.07333837643233 58.922575354390574 111.23596823280965 60.549424224629504ZM106.87053780108428 61.28082334559376Q108.48234838495858 60.212716875362524 108.49299904570626 59.30065648500177Q108.50364970645391 58.38859609464101 107.86440416745188 57.42395188156472Q106.41598706009285 55.23823904434123 104.62101618259646 56.42772124982602L103.94942843931551 56.87276561242237Z M114.71048570087962 46.841525226865535 118.18527226331206 44.95247749840749 126.9238671256976 61.026582744622715 123.44908056326517 62.91563047308076Z M144.37279369689884 53.03785249091815 140.53361160527515 54.67787537067558 131.7153732390113 45.89279392352958 131.66148998158502 45.915811788508634 136.1960093824582 56.53081350148924 132.66665602103572 58.03848365761713 125.46781874883729 41.18649489754259 129.44170898402672 39.48892735533752 138.12353968357053 48.14113136142844 138.19089375535341 48.11235903020463 133.7254279494174 37.659007089502914 137.17395642470044 36.18586373084361Z M158.85330690364896 48.40181243556696 150.12831697482048 51.07725612982422 144.7645462298328 33.58526187443615 152.94334898815677 31.077301814329825 153.97831195816642 34.452458432062826 149.55279539715548 35.809505313901184 150.64358624521543 39.366724321802366 154.4388868402596 38.20292778706124 155.43519974084978 41.4520412116009 151.63989914580563 42.615837746342024 152.8251679413353 46.481162337604715 157.79687167285076 44.956631821615424Z M180.9507591811386 29.224879197252374 177.4284667205419 29.7386852225722 179.55558137680424 44.32068610882852 175.6564181179544 44.88946726442948 173.53353231786753 30.33645643957725 169.9387647037606 30.86083460533576 169.4207298222653 27.309552083334967 180.43695315581877 25.70258673665567Z M197.1550578538573 42.942790264912 188.04076927012073 43.40451727480941 187.1150918457839 25.132051077238042 195.65882303824318 24.699228326387185 195.8374365364539 28.224980410946593 191.21445869943827 28.459179022708355 191.40270695066448 32.17511690436018 195.3673493362064 31.974269360729043 195.53929262079097 35.3683543549937 191.57465023524907 35.56920189862483 191.77920345311693 39.606992667663825 196.97273868140985 39.34388979685551Z M211.09082357152562 43.31165209506886 202.5425325129159 42.98089810801909 203.24991561193158 24.69867973095823 207.17276150869085 24.85046409487833 206.6047028631242 39.53186123834674 211.23014802497468 39.71083086147641Z M225.0985959991672 44.93510615082178 216.04723392092131 43.770506327796134 218.3820415918026 25.62419615808646 226.86678549821607 26.715891658322374 226.41627417020777 30.217301386825206 221.825214111258 29.626589438067413 221.35040134231977 33.31687189051438 225.28767120300137 33.82346346682248 224.853983949483 37.194115155671675 220.9167140888014 36.68752357936357 220.40077580444333 40.69743679540831 225.55845403522548 41.361053066955826Z M241.07237046733388 34.83913335139965Q239.9404791348939 32.71115962950284 238.53925690673398 32.39911620683089Q237.91013672266217 32.2590150782843 237.32450992542744 32.56381045108486Q236.73888312819273 32.86860582388543 236.62425493210915 33.38334051994418Q236.41728735584712 34.312722610050244 237.69240325637395 35.932329869004064Q239.03264185379317 37.59645408275054 239.55178866258296 38.49994644261431Q240.07093547137274 39.40343880247808 240.2595105898108 40.51094938877237Q240.44808570824884 41.618459975066656 240.18061991738716 42.81950759920373Q239.65524068533747 45.17870828947298 237.80926570703036 46.358391708789924Q235.96329072872322 47.53807512810687 233.58979185245235 47.009511779499285Q231.64523855623042 46.57647192762801 230.09533368213235 44.77561273294572L231.03464806670607 40.557647862464336Q232.38888146503876 42.90021572842088 234.17615471524275 43.29823029815551Q234.97685313133414 43.476540825396626 235.61174271968952 43.152701430266426Q236.2466323080449 42.828862035136225 236.38991755314936 42.1854436650628Q236.6032533625271 41.22746520295347 235.4917250641164 39.749338761263466Q233.72440599150647 37.37480837569288 233.25061767441204 36.30132984208847Q232.7768293573176 35.22785130848406 232.64938162082018 34.216493386267075Q232.52193388432278 33.20513546405008 232.73526969370056 32.24715700194075Q233.19378247803485 30.188218217705767 234.9372062206401 29.165784505897957Q236.68062996324534 28.143350794090146 238.9111469794999 28.64007297711896Q240.59833292769247 29.015798730948447 242.0689989499494 30.3638011328889Z M254.27411707750557 52.247906486725626Q252.63545536369037 52.40837481135246 250.88015956485174 51.837799063345095Q247.73177186217288 50.8143854200938 246.36842015500747 47.82973436746291Q245.0050684478421 44.845083314832024 246.43603619681292 40.442912898697Q247.91228773530815 35.90143329217796 250.74684392874474 34.28905395322674Q253.5814001221813 32.67667461427552 256.36758392986167 33.58235040476339Q258.0392942144699 34.125755879056115 259.65313970864133 35.60533239696879L258.4667044231022 39.25523318503011Q257.2345594684634 38.022955387997825 256.8274341714208 37.782795017727175Q256.4203088743782 37.542634647456524 255.9187957889957 37.37961300516871Q254.4421183709251 36.89960483621013 252.92914750003828 37.76325539539435Q251.41617662915147 38.62690595457858 250.44257515437698 41.62205354783501Q249.42368989007815 44.75651033147545 250.11163133616827 46.31248419711127Q250.79957278225842 47.86845806274709 252.40162847167466 48.38922164227762Q253.71113486128445 48.81488926380692 255.56470507895077 48.27759456078106Z M262.3968937318347 45.78142208979598Q263.97648731967485 42.267600619467316 265.4767832706751 40.96659983489113Q266.9770792216754 39.66559905031494 268.648062084486 39.32465507338925Q270.3190449472966 38.983711096463566 272.2429624063359 39.84858363125056Q273.83286641762527 40.5633046843037 274.5709463439154 41.529488258411355Q275.30902627020555 42.49567183251901 275.69060241474403 43.87977114905826Q276.07217855928246 45.263870465597506 275.7899585501393 46.92774616137321Q275.5077385409962 48.591621857148915 274.402623635435 51.04996083258798Q272.1383392908885 56.08688362465607 269.59972227803183 57.25036037643639Q267.0611052651752 58.41383712821672 264.40235822108616 57.21863133361524Q261.6901690253572 55.99940130193635 260.9654437397469 53.28862825071026Q260.2407184541366 50.57785519948416 262.3968937318347 45.78142208979598ZM266.6611075406542 46.4777481004023 266.1806227991059 47.54659113320189Q264.9974291230431 50.17861710147089 264.7957374115384 51.09172949134718Q264.5940457000337 52.00484188122346 264.94565042751174 52.74107876493083Q265.2972551549898 53.4773156486382 266.0855268916795 53.8316731455301Q266.72683271135924 54.1199639904591 267.4714663021864 53.89258753438344Q268.2160998930136 53.665211078307784 268.8593017373323 52.806029566052814Q269.50250358165107 51.94684805379784 270.6016124279429 49.50186961626877Q271.58660614811697 47.3107413990296 271.82366000555214 46.30110221414867Q272.0607138629873 45.291463029267746 271.7711923572598 44.47071146909445Q271.4816708515322 43.64995990892115 270.6933991148425 43.295602412029254Q269.54439285458295 42.7790813148648 268.58924099843625 43.54621113692396Q267.63408914228955 44.313340958983126 266.6611075406542 46.4777481004023Z M284.74832922661545 46.47743795152175 289.1676650680092 49.07649914105143Q294.31934799169113 52.106261899131745 291.41582534853086 57.043291367660245Q290.116294753766 59.25295928835715 288.0686949172293 59.67166239339417Q286.0210950806927 60.090365498431204 283.5715203571773 58.64974301052047L282.57401312440555 58.063097770598056L278.9204756808381 64.27542129621447L275.47339372455093 62.248153568381326ZM283.9916073690445 55.565992032078704 284.6734477560024 55.96699004417757Q285.5825682719463 56.50165406030939 286.4229127875275 56.214149683973126Q287.2632573031087 55.92664530763686 287.88703198859577 54.86600470570235Q289.26082147449006 52.53007004667992 287.45520711643485 51.46816790352922L286.67235333881655 51.00776277852682Z M299.95995088935257 55.986709424404346 303.185990569381 58.27478961481191 292.6015010959771 73.19821020872124 289.3754614159486 70.91013001831367Z M309.97844142955773 80.68308743581096Q308.3035467355191 82.64305077207673 306.172279413207 82.75824920999509Q304.0410120908949 82.87344764791345 301.9585510461125 81.09387203549736Q299.79813691409225 79.24768129320472 299.6146027370821 77.10618857069099Q299.43106856007194 74.96469584817726 301.2582264081141 72.8265540267964L309.5946340898066 63.07128196674627L312.6236683367628 65.65975558480605L304.6964678814548 74.93617296610942Q303.85902053443544 75.91615463424232 303.7911866545169 76.77343943774777Q303.7233527745983 77.63072424125322 304.4137944044192 78.22074396301684Q305.05969141296134 78.77269789627958 305.8705091839311 78.5792357302686Q306.6813269549009 78.38577356425765 307.42360983066806 77.51715344932168L315.474524098604 68.0959660488623L318.51469450087984 70.6939561140473Z M322.304659692486 101.14057151519398 319.7826954167675 98.36528843197533 330.26120905048094 87.63583625283216 330.22180335867284 87.59247245465687 317.260731141049 95.59000534875668 315.36925793426013 93.50854303634269 324.73064651099344 81.41906837422863 324.69124081918534 81.37570457605334 312.8669965044457 90.75494185221169 310.3253293828231 87.95797686990538 325.13650892386914 77.0520320939788 328.4859927275578 80.73795493887857 320.91353619741903 90.33088611589922 320.95294188922713 90.37424991407451 331.3626082295492 83.90351220567484 334.6529834955257 87.52438935331168Z" fill="url(#gold)"/>
<path d="M146.5258250617979 367.5011898609123Q145.21241256079887 367.6010070506148 143.8184414587268 367.1140970147825Q141.31814408516897 366.2407504425753 140.27968006888653 363.82986074201585Q139.2412160526041 361.4189710414564 140.46235550754866 357.9229800235614Q141.72213861613068 354.3163563785178 144.01731612569597 353.07610446648596Q146.3124936352613 351.83585255445416 148.52514617823283 352.6087256272039Q149.85273770401574 353.0724494708537 151.11775078068396 354.2839254486447L150.10528705538184 357.1825002799374Q149.14125693724935 356.1754613647778 148.8198147192776 355.9762910168157Q148.4983725013058 355.77712066885357 148.10009504357092 355.63800351575867Q146.92738919579602 355.2283807872013 145.70226402659753 355.89279867700884Q144.47713885739904 356.55721656681646 143.6463003041931 358.9358180505109Q142.77681809734966 361.42505216135385 143.29995335378686 362.68151270187957Q143.8230886102241 363.9379732424053 145.09536382243272 364.38237525923637Q146.13531051762936 364.7456256034287 147.62716919046625 364.34815998717784Z M152.8007247696651 361.9432064785329Q153.57402979249804 358.9597661879224 154.58229068365108 357.7320674447908Q155.59055157480412 356.5043687016592 156.86249016421604 356.0108454503139Q158.13442875362796 355.5173221989687 159.7679473918329 355.9407287513944Q161.1178690442384 356.2906272218017 161.8298294731839 356.9533540588584Q162.54178990212938 357.61608089591516 163.02878795893267 358.65631399807546Q163.51578601573596 359.6965471002357 163.51691247346156 361.0466590320426Q163.51803893118714 362.3967709638496 162.97701944753214 364.48404477933366Q161.86851757069553 368.76068732518974 160.0229243111969 370.0195234519466Q158.17733105169825 371.27835957870354 155.91989904473442 370.69323524583757Q153.6170915200427 370.09634961984864 152.6811201159622 368.05600440723094Q151.74514871188168 366.0156591946133 152.8007247696651 361.9432064785329ZM156.25719497711486 361.91906377671154 156.02196911465617 362.82657413126987Q155.44272542835162 365.06131837936977 155.4064256559215 365.808535046518Q155.37012588349137 366.5557517136662 155.74638912124408 367.08909511264864Q156.12265235899676 367.62243851163106 156.7919412454835 367.79591758519433Q157.33644745821852 367.93705310266955 157.89311395032337 367.65763025377964Q158.4497804424282 367.3782074048897 158.84151562791232 366.6141651979949Q159.2332508133964 365.8501229911002 159.7713299737707 363.77419305504804Q160.253542991811 361.9137968282035 160.30475308749027 361.085702843391Q160.35596318316956 360.2576088585786 160.01729802753 359.6492687884934Q159.6786328718904 359.0409287184082 159.00934398540363 358.86744964484495Q158.03377035425342 358.61458184270185 157.38364885142357 359.34796857571644Q156.73352734859373 360.08135530873096 156.25719497711486 361.91906377671154Z M174.51764386535373 363.5489337418547Q173.5376243954972 361.88832845028014 172.40669069590706 361.68858446779853Q171.89892454507068 361.59890349607207 171.44168180907246 361.86324951538325Q170.9844390730742 362.1275955346945 170.91106373257077 362.54304056719695Q170.77858047888395 363.29314965365984 171.85505556882742 364.54238632053756Q172.9851549499238 365.82489428651314 173.43207595502628 366.5285854129172Q173.87899696012875 367.23227653932133 174.06894853698503 368.1107343777179Q174.25890011384135 368.98919221611453 174.08769098599996 369.95856395862035Q173.75138734202577 371.86268702425684 172.317852980293 372.8709113304277Q170.88431861856023 373.8791356365985 168.96865541313204 373.54079378872143Q167.39919640145592 373.2635980579306 166.096684007109 371.8792379907586L166.69795415845675 368.47489675219646Q167.86327590163293 370.2991312517318 169.30579337559993 370.553906739591Q169.95204120393717 370.668046158152 170.44798076711635 370.38673447096596Q170.94392033029555 370.1054227837799 171.03563950592488 369.58611649315174Q171.1721991674174 368.8129271271054 170.2314784674464 367.6709680895072Q168.73487999449011 365.8358244398583 168.31818750611802 364.9946707379048Q167.9014950177459 364.1535170359514 167.76380408827833 363.34974008787515Q167.6261131588108 362.54596313979886 167.76267282030332 361.77277377375253Q168.05617418231716 360.1109936437426 169.41331946815262 359.23207909750965Q170.7704647539881 358.3531645512767 172.57072656149893 358.671124360125Q173.9324630569238 358.9116324206641 175.15560168695325 359.9368699870413Z M191.8648716638181 375.96219529197094 188.87634638607443 375.70005665634625 189.21074343164514 363.706840677334 189.1640477241804 363.7027447611524 185.88782110833077 375.4379180207215 183.64642715002302 375.241314044003 182.58609684592386 363.0551770183446 182.5394011384591 363.0510811021629 180.68124972601174 374.98122336646907 177.66937659453572 374.71703677275354 180.45426298798967 360.26839541374477 184.42339812249296 360.61654828918387 185.1799913487888 370.36447522927614 185.22668705625352 370.36857114545774 187.8321847674193 360.91555017044334 191.7312763407255 361.25755917160996Z M197.2976723439717 361.34693442249096 200.46163552231576 361.3720045239913 200.34566308981988 376.00826381936804 197.18169991147582 375.9831937178677Z M214.8383666596587 375.2026223120429Q213.66361304794142 375.7984157501553 212.18948757960484 375.88321504265065Q209.54542126338208 376.0353153609359 207.66191418628114 374.2068740159955Q205.77840710918016 372.378432671055 205.56573586768397 368.6814195917347Q205.34633452360876 364.8674124276258 206.99053560801357 362.8419081941681Q208.6347366924184 360.81640396071043 210.97461838819075 360.68180190913057Q212.37854740565416 360.60104067818264 214.01139359476912 361.2348746087978L214.18772228233874 364.30011963025953Q212.91124242965284 363.73969065973836 212.5379999907634 363.67899462351016Q212.16475755187395 363.61829858728197 211.74357884663493 363.6425269565663Q210.50344154787558 363.71386604390364 209.62671377226178 364.79725481067544Q208.749985996648 365.88064357744724 208.89468320209636 368.3960164004025Q209.04611051012373 371.0283833081464 210.01103005454382 371.9882238465807Q210.9759495989639 372.9480643850151 212.321381574033 372.87066820535665Q213.421125971046 372.8074052411141 214.64655873615737 371.8682908955673Z M222.94521409651165 370.58936069834425 218.68698760229887 371.10274579054163 218.40644930055166 368.7758460669281 222.66467579476443 368.2624609747307Z M229.46115016282943 358.30554560076075Q231.32805825513168 357.9609891956504 232.7846161264959 359.3962497924911Q234.24117399786013 360.8315103893318 235.00472800671577 364.9686709148658Q235.7129828394426 368.8062042157094 235.00414534181772 370.8734849321706Q234.29530784419288 372.9407656486318 232.11724840317356 373.3427481212605Q230.26186443489786 373.6851776349813 228.77800453270137 372.23112257286664Q227.2941446305049 370.777067510752 226.54335196998667 366.7090517293773Q225.74364080750834 362.37598109539175 226.6516552529779 360.5162318877158Q227.55966969844746 358.6564826800398 229.4150536667232 358.31405316631907ZM229.91096691772515 361.13019321157816Q229.42695370860974 361.2195226499401 229.14404978611424 361.8496935267787Q228.8611458636187 362.47986440361734 229.48219814937315 365.844908619372Q230.1670571768147 369.55567655592347 230.6709840252094 370.05850500431114Q231.17491087360415 370.5613334526988 231.65892408271955 370.4720040143369Q232.3964680204192 370.33588296540444 232.47453020936393 369.3383511226429Q232.55259239830866 368.3408192798814 232.13572168595294 366.0820909706762L232.00172752841004 365.3560711570031Q231.47638535518624 362.50961252244343 231.0163516091993 361.76034990810285Q230.55631786321234 361.0110872937622 229.93401516577828 361.12593942879903Z M246.8166475832889 369.66811971850905 244.05284574397294 370.4012123344988 240.98827825090103 358.8476144816206 239.34585502671737 359.2832637821063 238.65782957974338 356.68936779356795 243.064054643243 355.52062587709247Z M257.9741711477508 357.96016065344827Q259.02539987558055 358.12673172108725 259.67705818132913 358.7307853525696Q260.32871648707777 359.334838984052 260.8040334268188 360.69562029797953Q262.29954282258956 364.9771029686294 258.16188256723274 366.4223756146714Q256.51345642271895 366.99816605386997 255.07339238064532 366.4646845189179Q253.6333283385717 365.93120298396593 252.798625420002 363.54153823755667L255.65294720043528 362.5445319737095Q255.99248151906878 363.4810449391087 256.37938465063075 363.8424237750643Q256.7662877821927 364.20380261101985 257.47433659594356 363.95648322773997Q258.62491591828876 363.5545892299101 258.01821055618024 361.81765698367747Q257.2646593102493 359.6603207542802 255.6604862165949 360.2206537320237L255.09625981813718 360.4177363655749L254.27314999565874 358.0612614073102Q255.74789846872216 357.52130992313823 255.9520851423405 356.8976063099596Q256.15627181595886 356.27390269678097 255.85871568295022 355.42203146773693Q255.27519651302418 353.7514787977934 254.08036413981955 354.16883025707824Q253.56039079222126 354.3504554291744 253.51029504654633 354.86447669699805Q253.4601993008714 355.37849796482175 253.77040819672405 356.337667289027L251.21479450959194 357.23033568805295Q250.46510762902471 355.0840627213705 251.0988755126105 353.78895852720734Q251.7326433961963 352.49385433304417 253.48063890514382 351.8832846055719Q255.16225483780218 351.2959010702821 256.4570941152772 351.9111418771138Q257.75193339275216 352.52638268394537 258.33931692804197 354.20799861660373Q258.7489396565993 355.38070446437865 258.64390189899746 356.19941752437273Q258.5388641413956 357.0181305843669 257.9741711477508 357.96016065344827Z" fill="url(#gold)"/>
<polygon points="32.0,191.0 34.0,198.0 41.0,200.0 34.0,202.0 32.0,209.0 30.0,202.0 23.0,200.0 30.0,198.0" fill="url(#gold)"/>
<polygon points="368.0,191.0 370.0,198.0 377.0,200.0 370.0,202.0 368.0,209.0 366.0,202.0 359.0,200.0 366.0,198.0" fill="url(#gold)"/>
</svg>