<svg xmlns="http://www.w3.org/2000/svg" viewBox="0 0 200 200" role="img" aria-label="Midnight Eridanus mission mark">
<circle cx="100" cy="100" r="98" fill="#353547"/>
<circle cx="100" cy="100" r="94" fill="none" stroke="#d6aa4a" stroke-width="7"/>
<g stroke="#f3dc8f" stroke-width="4.5" stroke-linecap="round" opacity="0.95">
<line x1="54.0" y1="41.8" x2="66.8" y2="36.2"/>
<line x1="66.8" y1="36.2" x2="72.2" y2="36.0"/>
<line x1="72.2" y1="36.0" x2="86.9" y2="43.3"/>
<line x1="86.9" y1="43.3" x2="95.4" y2="58.2"/>
<line x1="95.4" y1="58.2" x2="101.9" y2="54.8"/>
<line x1="101.9" y1="54.8" x2="103.4" y2="49.5"/>
<line x1="103.4" y1="49.5" x2="109.2" y2="48.7"/>
<line x1="109.2" y1="48.7" x2="129.8" y2="48.0"/>
<line x1="129.8" y1="48.0" x2="136.0" y2="59.8"/>
<line x1="136.0" y1="59.8" x2="134.6" y2="70.4"/>
<line x1="134.6" y1="70.4" x2="124.8" y2="81.1"/>
<line x1="124.8" y1="81.1" x2="116.1" y2="76.6"/>
<line x1="116.1" y1="76.6" x2="108.7" y2="76.2"/>
<line x1="108.7" y1="76.2" x2="102.0" y2="79.9"/>
<line x1="102.0" y1="79.9" x2="78.9" y2="98.0"/>
<line x1="78.9" y1="98.0" x2="85.3" y2="105.1"/>
<line x1="85.3" y1="105.1" x2="88.1" y2="104.3"/>
<line x1="88.1" y1="104.3" x2="101.6" y2="108.9"/>
<line x1="101.6" y1="108.9" x2="107.3" y2="117.9"/>
<line x1="107.3" y1="117.9" x2="114.5" y2="124.4"/>
<line x1="114.5" y1="124.4" x2="124.0" y2="118.6"/>
<line x1="124.0" y1="118.6" x2="131.8" y2="118.5"/>
<line x1="131.8" y1="118.5" x2="134.6" y2="137.2"/>
<line x1="134.6" y1="137.2" x2="136.8" y2="146.8"/>
<line x1="136.8" y1="146.8" x2="144.1" y2="148.9"/>
<line x1="144.1" y1="148.9" x2="146.0" y2="164.0"/>
</g><g fill="#ffffff">
<circle cx="54.0" cy="41.8" r="3.2"/>
<circle cx="66.8" cy="36.2" r="3.2"/>
<circle cx="72.2" cy="36.0" r="3.2"/>
<circle cx="86.9" cy="43.3" r="3.2"/>
<circle cx="95.4" cy="58.2" r="3.2"/>
<circle cx="101.9" cy="54.8" r="3.2"/>
<circle cx="103.4" cy="49.5" r="3.2"/>
<circle cx="109.2" cy="48.7" r="3.2"/>
<circle cx="129.8" cy="48.0" r="3.2"/>
<circle cx="136.0" cy="59.8" r="3.2"/>
<circle cx="134.6" cy="70.4" r="3.2"/>
<circle cx="124.8" cy="81.1" r="3.2"/>
<circle cx="116.1" cy="76.6" r="3.2"/>
<circle cx="108.7" cy="76.2" r="3.2"/>
<circle cx="102.0" cy="79.9" r="3.2"/>
<circle cx="78.9" cy="98.0" r="3.2"/>
<circle cx="85.3" cy="105.1" r="3.2"/>
<circle cx="88.1" cy="104.3" r="3.2"/>
<circle cx="101.6" cy="108.9" r="3.2"/>
<circle cx="107.3" cy="117.9" r="3.2"/>
<circle cx="114.5" cy="124.4" r="3.2"/>
<circle cx="124.0" cy="118.6" r="3.2"/>
<circle cx="131.8" cy="118.5" r="3.2"/>
<circle cx="134.6" cy="137.2" r="3.2"/>
<circle cx="136.8" cy="146.8" r="3.2"/>
<circle cx="144.1" cy="148.9" r="3.2"/>
<circle cx="146.0" cy="164.0" r="4.6"/>
</g></svg>